<svg width="16" height="18" viewBox="0 0 16 18" fill="none" xmlns="http://www.w3.org/2000/svg">
<g clip-path="url(#clip0)">
<path d="M0.79167 9.56161L2.48459 10.1773C2.64732 10.2365 2.82289 10.2684 3.00094 10.2711C3.17899 10.2739 3.35591 10.2474 3.52125 10.1933L4.05375 10.0188C4.23987 9.95785 4.40681 9.86338 4.54214 9.74238C4.67747 9.62139 4.77772 9.47698 4.83542 9.31991L5.21959 8.27502C5.25455 8.16049 5.31938 8.05351 5.40965 7.96141C5.49991 7.86932 5.61346 7.7943 5.7425 7.7415L6.66417 7.36377V9.07956C6.66424 9.38349 6.56086 9.68142 6.36562 9.93998C6.17038 10.1985 5.89098 10.4075 5.55875 10.5434L3.17459 11.5201C2.62112 11.7468 2.15572 12.0951 1.83052 12.526C1.50532 12.9568 1.33316 13.4533 1.33334 13.9597V14.4547H14.6608V7.90922C14.6608 4.29559 11.0808 1.36377 6.66417 1.36377H0.500003C0.367395 1.36377 0.240218 1.40687 0.14645 1.48359C0.0526814 1.56031 3.00696e-06 1.66436 3.00696e-06 1.77286C-6.48319e-05 1.86257 0.0254744 1.95106 0.0745863 2.03127L0.66667 3.00013L0.29167 3.30695C0.198886 3.38313 0.125369 3.47352 0.0753219 3.57297C0.025275 3.67241 -0.00031932 3.77895 3.00696e-06 3.8865V8.56411C-0.000155149 8.77522 0.0745575 8.98184 0.21508 9.15889C0.355602 9.33595 0.555896 9.47585 0.79167 9.56161V9.56161ZM2.16667 4.6365C2.33149 4.6365 2.4926 4.67648 2.62964 4.7514C2.76669 4.82632 2.8735 4.93281 2.93657 5.05739C2.99964 5.18198 3.01614 5.31907 2.98399 5.45133C2.95184 5.58359 2.87247 5.70508 2.75593 5.80043C2.63938 5.89579 2.4909 5.96072 2.32924 5.98703C2.16759 6.01334 2.00004 5.99984 1.84777 5.94823C1.6955 5.89663 1.56535 5.80924 1.47378 5.69711C1.38221 5.58499 1.33334 5.45317 1.33334 5.31832C1.33334 5.13749 1.42113 4.96406 1.57741 4.8362C1.73369 4.70833 1.94566 4.6365 2.16667 4.6365V4.6365ZM15.3333 15.5456H0.66667C0.489859 15.5456 0.320289 15.6031 0.195265 15.7053C0.0702409 15.8076 3.00696e-06 15.9464 3.00696e-06 16.091V17.182C3.00696e-06 17.3266 0.0702409 17.4654 0.195265 17.5676C0.320289 17.6699 0.489859 17.7274 0.66667 17.7274H15.3333C15.5101 17.7274 15.6797 17.6699 15.8047 17.5676C15.9298 17.4654 16 17.3266 16 17.182V16.091C16 15.9464 15.9298 15.8076 15.8047 15.7053C15.6797 15.6031 15.5101 15.5456 15.3333 15.5456Z" fill="#141414"/>
</g>
<defs>
<clipPath id="clip0">
<rect width="16" height="17.4545" fill="white" transform="translate(0 0.272949)"/>
</clipPath>
</defs>
</svg>
