<svg width="16" height="18" viewBox="0 0 16 18" fill="none" xmlns="http://www.w3.org/2000/svg">
<g clip-path="url(#clip0)">
<path d="M14.2816 12.0145C13.4987 12.7076 12.6369 13.282 11.7022 13.6867L13.4016 16.8977L15.0875 17.6832C15.3941 17.826 15.7403 17.6078 15.7803 17.2468L15.9997 15.261L14.2816 12.0145V12.0145ZM15.6094 8.7909C15.7612 8.52943 15.6684 8.17761 15.4203 8.02761L14.5431 7.49681C14.3094 7.35534 14.0241 7.44704 13.8787 7.69181C12.5941 9.85761 10.3828 11.182 8 11.182C7.25219 11.182 6.52406 11.0372 5.83094 10.789L7.93594 6.81124C7.95781 6.81193 7.97781 6.8184 7.99969 6.8184C8.02156 6.8184 8.04187 6.81193 8.06344 6.81124L9.66 9.82829C10.6359 9.52284 11.5212 8.95045 12.2416 8.16056L10.6231 5.10227C10.8559 4.63761 11 4.11261 11 3.54568C11 1.73818 9.65687 0.272949 8 0.272949C6.34312 0.272949 5 1.73818 5 3.54568C5 4.11261 5.14406 4.63761 5.37656 5.10227L3.24219 9.13556C2.85 8.73977 2.49344 8.29727 2.18969 7.80602C2.04 7.56397 1.75312 7.47806 1.52156 7.62431L0.654375 8.17215C0.409062 8.32693 0.322187 8.68011 0.478125 8.93818C0.964687 9.74409 1.56219 10.4453 2.2275 11.0525L0 15.2614L0.219375 17.2472C0.259375 17.6082 0.605625 17.8264 0.912187 17.6835L2.59812 16.8981L4.81062 12.7175C5.81656 13.1348 6.89437 13.3639 8 13.3639C11.0953 13.3639 13.965 11.6249 15.6094 8.7909ZM8 2.45477C8.55219 2.45477 9 2.94329 9 3.54568C9 4.14806 8.55219 4.63659 8 4.63659C7.44781 4.63659 7 4.14806 7 3.54568C7 2.94329 7.44781 2.45477 8 2.45477Z" fill="#141414"/>
</g>
<defs>
<clipPath id="clip0">
<rect width="16" height="17.4545" fill="white" transform="translate(0 0.272949)"/>
</clipPath>
</defs>
</svg>
