<svg width="18" height="20" viewBox="0 0 18 20" fill="none" xmlns="http://www.w3.org/2000/svg">
<g clip-path="url(#clip0)">
<path d="M8.95621 0.300781C4.24278 0.300781 0.408142 4.48402 0.408142 9.62595C0.408142 14.7679 4.24278 18.9511 8.95621 18.9511C13.6696 18.9511 17.5043 14.7679 17.5043 9.62595C17.5043 4.48402 13.6696 0.300781 8.95621 0.300781ZM14.6079 4.60111C15.6248 5.95649 16.2406 7.68281 16.2567 9.56281C16.016 9.50728 13.6021 8.97315 11.1726 9.30645C10.9743 8.77848 10.7872 8.31403 10.5309 7.7417C13.2305 6.53932 14.454 4.82826 14.6079 4.60111V4.60111ZM13.7962 3.68003C13.6649 3.88409 12.5658 5.49565 9.96957 6.55725C8.77312 4.15918 7.44703 2.18916 7.24522 1.89437C9.56064 1.28549 12.0006 1.94212 13.7962 3.68003V3.68003ZM5.85206 2.42978C6.04456 2.71777 7.34928 4.69023 8.55907 7.0363C5.14374 8.0257 2.13561 8.01145 1.80906 8.00675C2.28251 5.53509 3.80938 3.48085 5.85206 2.42978ZM1.65485 9.63809C1.65485 9.55665 1.65633 9.47558 1.65857 9.3947C1.97802 9.40184 5.51623 9.45159 9.16247 8.26116C9.37148 8.70742 9.57115 9.1604 9.75442 9.6129C7.1142 10.4242 4.7154 12.7536 3.53188 14.9638C2.36572 13.5517 1.65485 11.6839 1.65485 9.63809ZM4.47458 15.9218C5.23725 14.221 7.30709 12.0254 10.2507 10.93C11.2758 13.8359 11.6997 16.2714 11.8083 16.9702C9.46058 18.0611 6.63755 17.7618 4.47458 15.9218V15.9218ZM13.0357 16.241C12.9609 15.7565 12.5723 13.4247 11.6173 10.5619C13.9053 10.1624 15.9155 10.8164 16.1653 10.9024C15.8398 13.1187 14.6737 15.0327 13.0357 16.241Z" fill="white"/>
</g>
<defs>
<clipPath id="clip0">
<rect width="17.6476" height="19.252" fill="white" transform="translate(0.132446)"/>
</clipPath>
</defs>
</svg>
