<svg width="16" height="18" viewBox="0 0 16 18" fill="none" xmlns="http://www.w3.org/2000/svg">
<g clip-path="url(#clip0)">
<path d="M15.6144 14.0286L11.4287 7.60249V2.45477H11.7144C12.1894 2.45477 12.5715 2.08999 12.5715 1.63659V1.09113C12.5715 0.637722 12.1894 0.272949 11.7144 0.272949H4.28581C3.81081 0.272949 3.42867 0.637722 3.42867 1.09113V1.63659C3.42867 2.08999 3.81081 2.45477 4.28581 2.45477H4.57153V7.60249L0.385807 14.0286C-0.660623 15.6343 0.546522 17.7275 2.53224 17.7275H13.468C15.4573 17.7275 16.6608 15.6309 15.6144 14.0286V14.0286ZM4.9251 11.182L6.64653 8.53659C6.77867 8.35931 6.85367 8.14113 6.85367 7.90931V2.45477H9.13939V7.90931C9.13939 8.14454 9.21796 8.35931 9.34653 8.53659L11.068 11.182H4.9251V11.182Z" fill="#141414"/>
</g>
<defs>
<clipPath id="clip0">
<rect width="16" height="17.4545" fill="white" transform="translate(0 0.272949)"/>
</clipPath>
</defs>
</svg>
