<svg width="18" height="20" viewBox="0 0 18 20" fill="none" xmlns="http://www.w3.org/2000/svg">
<g clip-path="url(#clip0)">
<path d="M6.03515 14.9428C6.03515 15.018 5.95332 15.0782 5.85013 15.0782C5.73272 15.0894 5.65089 15.0293 5.65089 14.9428C5.65089 14.8676 5.73272 14.8074 5.8359 14.8074C5.94264 14.7961 6.03515 14.8563 6.03515 14.9428ZM4.92862 14.7736C4.90371 14.8488 4.97487 14.9353 5.08161 14.9578C5.17412 14.9954 5.28086 14.9578 5.3022 14.8826C5.32355 14.8074 5.25595 14.7209 5.14921 14.6871C5.0567 14.6608 4.95352 14.6984 4.92862 14.7736ZM6.50125 14.7097C6.39806 14.736 6.3269 14.8074 6.33758 14.8939C6.34825 14.9691 6.44076 15.018 6.5475 14.9917C6.65068 14.9654 6.72184 14.8939 6.71117 14.8187C6.70049 14.7473 6.60443 14.6984 6.50125 14.7097ZM8.8424 0.300781C3.90747 0.300781 0.132446 4.26022 0.132446 9.47554C0.132446 13.6455 2.61592 17.2139 6.16324 18.4698C6.61866 18.5563 6.77877 18.2592 6.77877 18.0148C6.77877 17.7817 6.7681 16.4957 6.7681 15.7061C6.7681 15.7061 4.2775 16.2701 3.75448 14.5856C3.75448 14.5856 3.34887 13.4914 2.76536 13.2094C2.76536 13.2094 1.95058 12.619 2.82229 12.6303C2.82229 12.6303 3.70822 12.7055 4.19567 13.6004C4.97487 15.0518 6.28065 14.6345 6.78944 14.3863C6.87128 13.7847 7.10255 13.3673 7.35872 13.1191C5.36981 12.886 3.3631 12.5814 3.3631 8.96416C3.3631 7.93012 3.63351 7.41122 4.20279 6.74943C4.11028 6.50502 3.80785 5.4973 4.29529 4.19629C5.03891 3.95188 6.75031 5.21153 6.75031 5.21153C7.4619 5.00097 8.22687 4.89192 8.98472 4.89192C9.74257 4.89192 10.5075 5.00097 11.2191 5.21153C11.2191 5.21153 12.9305 3.94812 13.6742 4.19629C14.1616 5.50107 13.8592 6.50502 13.7667 6.74943C14.3359 7.41498 14.6846 7.93388 14.6846 8.96416C14.6846 12.5927 12.589 12.8822 10.6 13.1191C10.9274 13.4162 11.2049 13.9802 11.2049 14.8638C11.2049 16.131 11.1942 17.699 11.1942 18.0073C11.1942 18.2517 11.3579 18.5488 11.8098 18.4623C15.3678 17.2139 17.7801 13.6455 17.7801 9.47554C17.7801 4.26022 13.7773 0.300781 8.8424 0.300781ZM3.59081 13.2695C3.54456 13.3071 3.55523 13.3936 3.61572 13.4651C3.67265 13.5252 3.75448 13.5515 3.80073 13.5027C3.84699 13.4651 3.83631 13.3786 3.77583 13.3071C3.7189 13.247 3.63706 13.2206 3.59081 13.2695ZM3.20655 12.965C3.18164 13.0138 3.21722 13.074 3.28838 13.1116C3.34531 13.1492 3.41647 13.1379 3.44138 13.0853C3.46628 13.0364 3.4307 12.9762 3.35954 12.9386C3.28838 12.9161 3.23145 12.9274 3.20655 12.965ZM4.35934 14.3036C4.30241 14.3525 4.32376 14.4653 4.40559 14.5367C4.48742 14.6232 4.59061 14.6345 4.63686 14.5743C4.68311 14.5254 4.66177 14.4126 4.59061 14.3412C4.51233 14.2547 4.40559 14.2434 4.35934 14.3036ZM3.95373 13.7508C3.8968 13.7884 3.8968 13.8862 3.95373 13.9727C4.01065 14.0592 4.10672 14.0968 4.15297 14.0592C4.2099 14.0103 4.2099 13.9125 4.15297 13.826C4.10316 13.7395 4.01065 13.7019 3.95373 13.7508Z" fill="white"/>
</g>
<defs>
<clipPath id="clip0">
<rect width="17.6476" height="19.252" fill="white" transform="translate(0.132446)"/>
</clipPath>
</defs>
</svg>
