<svg width="18" height="20" viewBox="0 0 18 20" fill="none" xmlns="http://www.w3.org/2000/svg">
<g clip-path="url(#clip0)">
<path d="M4.08268 16.8461H0.423947V5.59946H4.08268V16.8461ZM2.25134 4.06532C1.0814 4.06532 0.132446 3.14032 0.132446 2.02356C0.132446 1.48714 0.355687 0.972685 0.753057 0.593377C1.15043 0.21407 1.68938 0.000976562 2.25134 0.000976562C2.81331 0.000976562 3.35226 0.21407 3.74963 0.593377C4.147 0.972685 4.37024 1.48714 4.37024 2.02356C4.37024 3.14032 3.42089 4.06532 2.25134 4.06532ZM17.7761 16.8461H14.1253V11.3713C14.1253 10.0665 14.0977 8.39325 12.223 8.39325C10.3208 8.39325 10.0293 9.81082 10.0293 11.2773V16.8461H6.37451V5.59946H9.88355V7.1336H9.93476C10.4232 6.24997 11.6164 5.31745 13.3965 5.31745C17.0994 5.31745 17.7801 7.64498 17.7801 10.6681V16.8461H17.7761Z" fill="white"/>
</g>
<defs>
<clipPath id="clip0">
<rect width="17.6476" height="19.252" fill="white" transform="translate(0.132446)"/>
</clipPath>
</defs>
</svg>
