<svg width="16" height="18" viewBox="0 0 16 18" fill="none" xmlns="http://www.w3.org/2000/svg">
<g clip-path="url(#clip0)">
<path d="M7 3.54568L7.5 2.45477L8.5 1.90931L7.5 1.36386L7 0.272949L6.5 1.36386L5.5 1.90931L6.5 2.45477L7 3.54568ZM2.5 5.72749L3.33313 3.90943L5 3.00022L3.33313 2.09102L2.5 0.272949L1.66688 2.09102L0 3.00022L1.66688 3.90943L2.5 5.72749ZM13.5 10.0911L12.6669 11.9092L11 12.8184L12.6669 13.7276L13.5 15.5457L14.3331 13.7276L16 12.8184L14.3331 11.9092L13.5 10.0911ZM15.7069 3.48534L13.0553 0.592722C12.8603 0.379313 12.6044 0.272949 12.3484 0.272949C12.0925 0.272949 11.8366 0.379313 11.6412 0.592722L0.293125 12.9725C-0.0975 13.3986 -0.0975 14.0893 0.293125 14.5151L2.94469 17.4077C3.14 17.6208 3.39594 17.7272 3.65156 17.7272C3.9075 17.7272 4.16344 17.6208 4.35875 17.4077L15.7069 5.02761C16.0975 4.60215 16.0975 3.91113 15.7069 3.48534V3.48534ZM11.2328 7.20909L9.64188 5.47352L12.3481 2.52124L13.9391 4.25681L11.2328 7.20909V7.20909Z" fill="#141414"/>
</g>
<defs>
<clipPath id="clip0">
<rect width="16" height="17.4545" fill="white" transform="translate(0 0.272949)"/>
</clipPath>
</defs>
</svg>
