<svg width="18" height="20" viewBox="0 0 18 20" fill="none" xmlns="http://www.w3.org/2000/svg">
<g clip-path="url(#clip0)">
<path d="M15.966 5.70441C15.9772 5.87542 15.9772 6.04647 15.9772 6.21748C15.9772 11.4336 12.338 17.4437 5.68652 17.4437C3.63733 17.4437 1.73373 16.7962 0.132446 15.6724C0.423598 15.7091 0.703512 15.7213 1.00587 15.7213C2.69669 15.7213 4.2532 15.0983 5.49615 14.0355C3.90607 13.9989 2.57354 12.8628 2.11443 11.2992C2.3384 11.3358 2.56234 11.3603 2.79751 11.3603C3.12224 11.3603 3.44699 11.3114 3.74931 11.2259C2.09206 10.8594 0.849071 9.2714 0.849071 7.35353V7.30469C1.33055 7.59787 1.89049 7.7811 2.48392 7.8055C1.50972 7.09698 0.871475 5.88764 0.871475 4.51947C0.871475 3.78655 1.05061 3.11468 1.36416 2.52832C3.14461 4.9226 5.82088 6.48618 8.82183 6.65723C8.76586 6.36405 8.73225 6.05869 8.73225 5.75329C8.73225 3.57887 10.3447 1.80762 12.3491 1.80762C13.3905 1.80762 14.3311 2.28403 14.9918 3.05362C15.8092 2.88261 16.593 2.55277 17.2873 2.1008C17.0185 3.01699 16.4475 3.78658 15.6972 4.27518C16.4251 4.18971 17.1306 3.96978 17.78 3.66442C17.2874 4.44619 16.6715 5.14245 15.966 5.70441V5.70441Z" fill="white"/>
</g>
<defs>
<clipPath id="clip0">
<rect width="17.6476" height="19.252" fill="white" transform="translate(0.132446)"/>
</clipPath>
</defs>
</svg>
