<svg width="120" height="48" viewBox="0 0 120 48" fill="none" xmlns="http://www.w3.org/2000/svg">
<path d="M39.6985 11.907H54.7688V16.4266H44.6483V20.4052H52.566V24.7484H44.6483V30.911H39.6985V11.907Z" fill="#030D54"/>
<path fill-rule="evenodd" clip-rule="evenodd" d="M69.7511 30.9112V16.5229L64.7369 16.5242V17.7999H64.683C63.7078 16.877 62.1358 16.2793 60.5363 16.2793C56.4158 16.2793 53.4072 19.4034 53.4072 23.719C53.4072 28.0346 56.4158 31.1574 60.5363 31.1574C62.2712 31.1574 63.8432 30.5307 64.683 29.4459H64.7369V30.9112H69.7511ZM64.5476 22.8422V24.4167C64.5476 25.6925 63.3279 26.6693 61.7284 26.6693C59.8318 26.6693 58.612 25.4989 58.612 23.6558C58.612 21.756 59.8318 20.6159 61.7284 20.6159C63.3279 20.6159 64.5476 21.5652 64.5476 22.8422Z" fill="#030D54"/>
<path d="M78.8964 20.5434V25.0499C78.8964 25.9188 79.3039 26.2993 80.17 26.2993H82.6029V30.9137H79.2763C75.4279 30.9137 73.6929 29.0956 73.6929 25.6199V20.5434H70.6699V16.5227H73.6929V12.7219H78.8964V16.5227H82.6029V20.5434H78.8964Z" fill="#030D54"/>
<path d="M0 27.7305H5.17853V42.0648H14.8534V46.7345H0V27.7305Z" fill="#030D54"/>
<path d="M16.1086 26.9155H21.3121V46.7345H16.1086V26.9155Z" fill="#030D54"/>
<path fill-rule="evenodd" clip-rule="evenodd" d="M38.3986 46.7344V32.3448L33.3844 32.3461V33.6231H33.3305C32.3539 32.6989 30.782 32.1025 29.1837 32.1025C25.0632 32.1025 22.0547 35.224 22.0547 39.5409C22.0547 43.8578 25.0632 46.9793 29.1837 46.9793C30.9173 46.9793 32.4906 46.3539 33.3305 45.2678H33.3844V46.7344H38.3986ZM33.1951 38.6641V40.2387C33.1951 41.5144 31.9754 42.4926 30.3758 42.4926C28.4792 42.4926 27.2595 41.3222 27.2595 39.479C27.2595 37.578 28.4792 36.4379 30.3758 36.4379C31.9754 36.4379 33.1951 37.3884 33.1951 38.6641Z" fill="#030D54"/>
<path d="M39.6934 32.3448H44.5998V33.6218H44.6537C45.629 32.508 47.1746 31.938 48.9911 31.938C50.889 31.938 52.4872 32.616 53.5716 33.8377H53.6255C54.8452 32.6437 56.6064 31.938 58.6121 31.938C62.4066 31.938 65.4152 34.4631 65.4152 38.019V46.7344H60.3523V38.78C60.3523 37.2594 59.3008 36.2786 57.6684 36.2786C56.0701 36.2786 54.9582 37.2831 54.9582 38.78V46.7344H50.1608V38.78C50.1608 37.2594 49.1304 36.2786 47.5045 36.2786C45.8787 36.2786 44.7667 37.2831 44.7667 38.78V46.7344H39.6934V32.3448Z" fill="#030D54"/>
<path fill-rule="evenodd" clip-rule="evenodd" d="M82.603 46.7344V32.3448L77.5887 32.3461V33.6231H77.5335C76.5583 32.6989 74.9863 32.1025 73.3867 32.1025C69.2676 32.1025 66.259 35.224 66.259 39.5409C66.259 43.8578 69.2676 46.9793 73.3867 46.9793C75.1217 46.9793 76.6936 46.3539 77.5335 45.2678H77.5887V46.7344H82.603ZM77.3981 38.6641V40.2387C77.3981 41.5144 76.1784 42.4926 74.5802 42.4926C72.6823 42.4926 71.4625 41.3222 71.4625 39.479C71.4625 37.578 72.6823 36.4379 74.5802 36.4379C76.1784 36.4379 77.3981 37.3884 77.3981 38.6641Z" fill="#030D54"/>
<path d="M104.885 35.1331C104.359 34.9461 104.278 35.0502 104.096 35.2884C103.915 35.5267 103.68 35.8216 103.149 35.9085C103.048 35.9245 102.947 35.9324 102.845 35.9322C102.318 35.9174 101.806 35.7491 101.373 35.4477L101.242 35.3622C100.803 35.0607 100.156 34.621 99.3228 34.7316C99.3221 34.7408 99.3221 34.75 99.3228 34.7592C99.3266 34.7713 99.3297 34.7836 99.332 34.7961C99.3354 34.8101 99.3403 34.8238 99.3464 34.8369C99.3526 34.8522 99.3596 34.8671 99.3674 34.8816L99.395 34.9343L99.4305 34.9975C99.441 35.0172 99.4542 35.0409 99.4673 35.0673C99.4805 35.0936 99.4923 35.116 99.5041 35.141C99.5505 35.2448 99.5836 35.3541 99.6027 35.4662C99.6281 35.6496 99.6237 35.8358 99.5896 36.0178C99.5694 36.1244 99.5435 36.2299 99.512 36.3338C99.5541 36.4154 99.5979 36.4983 99.6435 36.5826C100.19 37.6582 99.7683 37.9465 99.767 38.7206C99.767 39.7541 100.182 39.6132 100.248 40.0859C100.314 40.5585 99.8537 40.889 100.168 41.2905C100.482 41.692 100.809 41.3708 100.889 42.1739C100.951 42.5165 101.151 42.8182 101.443 43.0072V44.7911C101.443 45.1598 101.298 45.2822 100.999 45.4349C100.699 45.5876 100.192 45.8299 100.109 46.4513C100.083 46.6336 100.133 46.8185 100.247 46.9629C100.361 47.1074 100.529 47.1989 100.712 47.2162C101.084 47.2596 101.742 47.3189 102.298 47.1951C102.831 47.0779 103.242 46.7067 103.242 46.0813V42.9006C103.964 42.6123 104.383 41.7513 104.096 40.8889C103.834 40.099 104.337 39.9253 104.337 39.1222C104.337 38.6403 104.016 38.3191 104.016 37.9979C104.016 37.6766 104.418 37.6687 104.497 37.2751C104.576 36.8814 104.336 36.1942 104.578 35.6689C104.66 35.4793 104.763 35.2995 104.885 35.1331Z" fill="#030D54"/>
<path fill-rule="evenodd" clip-rule="evenodd" d="M112.498 43.3681L112.51 43.3589V43.3457C112.519 43.3457 112.527 43.3405 112.535 43.3353C112.539 43.3323 112.544 43.3292 112.549 43.3273C113.131 42.8599 113.206 42.041 113.225 41.6921C113.188 41.5156 113.271 41.3359 113.43 41.2498C113.468 41.2302 113.509 41.2168 113.552 41.2103C114.004 40.9839 114.314 40.5455 114.376 40.0425C114.406 39.6605 114.368 39.2762 114.263 38.9077C114.247 38.8405 114.229 38.7602 114.213 38.6852C114.179 38.5187 114.266 38.3512 114.421 38.2823C114.72 38.1507 115.049 37.9572 115.224 37.5385C115.322 37.2624 115.354 36.967 115.317 36.6762C115.296 36.3233 115.295 36.1272 115.513 35.8718C115.63 35.7267 115.762 35.5943 115.907 35.4768C116.09 35.3298 116.256 35.1634 116.403 34.9805C116.797 34.4986 116.984 34.2301 116.701 33.4178C116.697 33.4053 116.693 33.3925 116.69 33.3796C116.524 32.6595 116.61 32.383 116.809 31.8735C117.029 31.3207 117.193 30.7474 117.3 30.162C117.317 30.0646 117.334 29.9658 117.348 29.8645C117.423 29.3356 117.46 28.8018 117.457 28.2675C117.455 27.8328 117.421 27.3988 117.353 26.9694C117.346 26.9317 117.34 26.8942 117.334 26.8572C117.326 26.8054 117.318 26.7545 117.307 26.7061L117.286 26.6132C117.275 26.5656 117.265 26.5202 117.256 26.4757C117.247 26.4368 117.238 26.4016 117.228 26.3668C117.22 26.3369 117.212 26.3072 117.204 26.2756C117.196 26.2409 117.189 26.211 117.182 26.183C117.175 26.1558 117.168 26.1304 117.162 26.1045C117.099 25.9057 117.08 25.7767 117.122 25.7477C117.164 25.7187 117.266 25.7964 117.417 25.9741C117.451 26.0202 117.487 26.0729 117.525 26.1321C117.566 26.1974 117.603 26.2656 117.634 26.3362C117.67 26.4086 117.708 26.4876 117.747 26.5718C117.773 26.6268 117.794 26.6851 117.815 26.7457C117.827 26.778 117.838 26.8109 117.851 26.8444C118.001 27.2966 118.094 27.7658 118.128 28.2412C118.173 28.8195 118.154 29.401 118.071 29.9751C118.028 30.2732 117.968 30.5687 117.89 30.8598C117.875 30.9104 117.86 30.9605 117.845 31.0104C117.837 31.0397 117.828 31.0689 117.819 31.0981C117.739 31.4022 117.66 31.6405 117.591 31.8327C117.694 31.7227 117.91 31.5841 118.166 31.4192C118.775 31.0275 119.614 30.4872 119.737 29.8276C119.843 29.2787 119.793 28.9909 119.751 28.7526C119.713 28.5394 119.683 28.3659 119.778 28.0806C120.301 26.5101 119.622 25.6634 119.345 25.3167C119.282 25.2379 119.239 25.185 119.236 25.1553C119.211 24.8538 118.801 24.077 118.018 23.7071C117.463 22.3461 116.449 22.2217 116.05 22.1727C115.998 22.1663 115.957 22.1612 115.928 22.1549C114.984 20.5156 113.629 20.6118 113.139 20.6466C113.039 20.6537 112.975 20.6583 112.958 20.6448C111.536 19.4957 110.673 19.6364 110.161 19.7198C110.058 19.7366 109.969 19.7511 109.893 19.7522C109.804 19.7217 109.7 19.6796 109.583 19.6322C108.881 19.3481 107.715 18.8756 106.562 19.5942C104.722 19.0834 103.784 19.8128 103.784 19.8128C103.417 19.5916 102.293 19.3783 101.277 19.793C100.966 19.0138 100.16 18.8323 99.5953 18.7051C99.3739 18.6552 99.1894 18.6136 99.0861 18.5476L99.0817 18.5448C98.6971 18.3006 98.5253 18.1916 98.2975 16.9888C98.2679 16.8314 98.2469 16.6698 98.2248 16.5001L98.2173 16.4425C98.1752 15.9957 98.0871 15.5546 97.9544 15.126C97.8168 14.6799 97.5293 14.2952 97.1409 14.0372C97.0152 13.9548 96.9048 13.851 96.8149 13.7304C96.7755 13.6751 96.7781 13.5764 96.8044 13.3091C96.8536 12.9696 96.8411 12.6239 96.7676 12.2888C96.6925 12.0034 96.5396 11.7444 96.326 11.5411C96.1945 11.4094 96.1472 11.3541 96.1472 11.0144C96.1196 10.4213 96.0396 9.83186 95.908 9.25293C95.8617 9.02085 95.8169 8.8114 95.7839 8.65687L95.7595 8.542L95.7437 8.47223C95.4072 6.91083 95.1601 6.23413 94.595 5.331C94.2388 4.74514 93.5027 4.025 92.747 3.81436C92.6626 3.06462 92.3753 2.35221 91.9163 1.75399C91.4786 1.17077 90.464 0.532257 89.5071 0.408503C89.0326 0.340044 88.6541 0.740268 89.009 1.30111L90.4824 3.44046L90.4114 3.45626C90.2105 3.16133 89.9648 2.89969 89.6832 2.68083C89.126 2.28587 88.0837 2.02256 87.2504 2.22663C86.8324 2.32273 86.6471 2.82433 87.1189 3.23114L88.5871 4.38705C88.5437 4.42786 88.5016 4.46867 88.4635 4.5108C88.1087 4.89654 88.0574 5.252 88.0692 5.48108C88.0788 5.58307 88.1078 5.68228 88.1547 5.77335C87.2328 6.3134 86.369 6.94738 85.5772 7.6652C85.3491 7.87179 85.4202 8.15455 85.4784 8.3858C85.511 8.51559 85.5396 8.62916 85.5089 8.70394C85.3446 9.0989 85.3774 9.64525 85.6403 9.8559C86.2449 10.3404 88.244 10.6168 89.8738 10.1942C89.8635 10.2458 89.8542 10.2983 89.8451 10.35L89.841 10.3733C89.8002 10.5997 89.7542 10.8551 89.6767 11.1435C89.5794 11.4976 89.6018 12.065 89.6228 12.3718C89.678 13.1617 89.8068 13.425 89.8857 13.5567C89.7442 13.7285 89.6363 13.9254 89.5676 14.1372C89.4537 14.5252 89.5658 14.9444 89.858 15.2234C89.897 15.2613 89.9334 15.3018 89.9671 15.3445V15.355C89.9671 15.5117 89.7989 15.8435 89.6622 16.1094L89.6609 16.1119C89.3522 16.7186 88.9306 17.5469 89.31 18.3844C89.4238 18.6187 89.5986 18.8179 89.816 18.961L89.7989 18.9939L89.791 19.0093C89.7476 19.0936 89.6937 19.1984 89.6293 19.3323C89.4414 19.7193 89.2166 20.2946 89.4204 20.8226C89.5192 21.0767 89.7058 21.2869 89.9461 21.415C89.9292 21.6836 89.8524 21.945 89.7214 22.1799C89.1956 23.2423 89.2429 23.7308 89.5255 24.2587C89.5847 24.3693 89.6044 24.4075 89.515 24.705C89.2732 25.512 89.6951 26.0663 89.975 26.4323C90.255 26.7983 90.2642 26.8523 90.1853 27.0366C89.8976 27.6381 89.887 28.3356 90.1564 28.9455C90.2535 29.2085 90.2707 29.255 90.1906 29.4326C90.0854 29.6644 89.9619 30.0132 90.1012 30.3661C90.1917 30.5883 90.3653 30.7664 90.5849 30.8624C90.58 30.9745 90.5655 31.0859 90.5415 31.1955C90.5322 31.2423 90.5273 31.2899 90.5271 31.3377V32.0604C90.5273 32.1082 90.5322 32.1558 90.5415 32.2026C90.6585 32.7872 90.8714 33.1163 91.267 33.3032V33.377C91.2605 33.4612 91.2539 33.556 91.2539 33.6666C91.2539 34.6233 91.8593 35.0236 92.2615 35.2895L92.2675 35.2935C92.6272 35.5311 92.8644 35.6877 92.9454 36.2588C92.9548 36.3796 92.9504 36.5011 92.9323 36.6209C92.8661 37.0638 92.9112 37.5164 93.0637 37.9374C93.1504 38.1454 93.2668 38.3397 93.4094 38.514C93.4768 38.596 93.5362 38.6841 93.5869 38.7774C93.5277 39.1355 93.3871 40.0439 94.1126 40.5849C94.5011 40.882 94.4915 41.0167 94.4911 41.0219C94.3111 41.6802 94.4136 42.328 94.7698 42.7954C94.9754 43.065 95.2583 43.2653 95.5807 43.3694V44.7926C95.5807 45.1612 95.4361 45.2836 95.1365 45.4363L95.1125 45.4486C94.8105 45.602 94.3273 45.8476 94.2467 46.4527C94.2211 46.6348 94.2709 46.8195 94.3846 46.9639C94.4982 47.1084 94.6659 47.2 94.8486 47.2176C95.2219 47.2611 95.8791 47.3203 96.4351 47.1965C96.9608 47.0794 97.3787 46.7081 97.3787 46.0828V43.0811C97.4535 43.0242 97.523 42.9608 97.5864 42.8915C97.9092 42.5233 98.0564 42.0328 97.9899 41.5473C97.9518 41.1247 97.9978 41.0879 98.0438 41.0523C98.6215 40.5894 98.4687 39.9334 98.395 39.617L98.3947 39.616C98.3742 39.5373 98.3593 39.4572 98.3501 39.3764C98.3943 39.3249 98.4462 39.2805 98.5038 39.2447C99.05 38.8989 99.2365 38.1891 98.931 37.6188C98.9032 37.5625 98.8846 37.502 98.8758 37.4398C98.8692 37.0629 98.9417 36.6888 99.0887 36.3418C99.093 36.2682 99.0917 36.1901 99.0902 36.1074C99.0895 36.0644 99.0887 36.02 99.0887 35.9745C99.0872 35.8436 99.0687 35.7135 99.0335 35.5874C99.0144 35.5282 98.9888 35.4712 98.9573 35.4176L98.9271 35.3728L98.8942 35.3228L98.8548 35.2675L98.8088 35.1977C98.792 35.1713 98.7767 35.1441 98.7628 35.1161C98.7455 35.0863 98.7309 35.0551 98.7194 35.0226C98.7062 34.9897 98.6944 34.9555 98.6826 34.9199C98.6736 34.8929 98.6691 34.8666 98.6646 34.8399L98.6602 34.8146C98.64 34.6815 98.64 34.5461 98.6602 34.4131C98.6602 34.3792 98.6647 34.3446 98.6692 34.3099L98.6725 34.2838L98.6747 34.2643C98.6803 34.2206 98.6834 34.1767 98.6839 34.1326V33.8404C98.6751 33.6491 98.6519 33.4519 98.6292 33.259L98.6261 33.2321L98.6079 33.0788C98.59 32.9294 98.5724 32.7817 98.5577 32.6384C98.538 32.4462 98.5249 32.2619 98.517 32.0868V31.601C98.5249 31.4509 98.5354 31.3166 98.5525 31.1981C98.5663 31.0968 98.587 30.9965 98.6142 30.8979C98.6616 30.7347 98.7128 30.6478 98.7641 30.6504C98.8153 30.6531 98.86 30.7452 98.8955 30.9045C98.8997 30.924 98.9044 30.9447 98.9094 30.9664C98.9244 31.0325 98.9418 31.1087 98.9547 31.1928C98.9633 31.2496 98.9743 31.3097 98.986 31.3733C98.9974 31.4353 99.0094 31.5006 99.0204 31.5694C99.0354 31.6633 99.0534 31.7625 99.0724 31.8671C99.0816 31.918 99.0911 31.9702 99.1005 32.0236C99.1165 32.1137 99.1341 32.2073 99.1523 32.3049C99.1672 32.3841 99.1825 32.4658 99.1978 32.5502C99.2069 32.6002 99.2162 32.6506 99.2257 32.7016C99.2519 32.8424 99.2788 32.9876 99.303 33.1413C99.3406 33.3631 99.3656 33.5868 99.3779 33.8114V34.0023C100.41 33.9246 101.197 34.4631 101.645 34.7712L101.765 34.8515C102.181 35.1306 102.653 35.2609 103.024 35.2004C103.276 35.1582 103.373 35.0358 103.519 34.8488C103.837 34.4407 104.208 34.1063 105.22 34.4934C105.914 34.7567 106.092 34.5947 106.385 34.3262C106.678 34.0576 107.083 33.6864 107.937 33.8759C107.966 33.8775 107.995 33.8814 108.024 33.8878C108.061 33.8955 108.098 33.9066 108.134 33.9207C108.161 34.0321 108.18 34.1451 108.192 34.259L108.193 34.2648C108.212 34.4175 108.234 34.5919 108.277 34.7856C108.313 35.0032 108.331 35.2234 108.33 35.4439C108.348 36.06 108.373 36.8987 109.057 37.3173C109.151 37.5464 109.125 38.2731 109.111 38.672C109.079 39.1217 109.087 39.5733 109.136 40.0215C109.26 40.8469 109.719 41.1037 110.027 41.1826L110.027 41.3158C110.026 41.6989 110.026 42.2635 110.409 42.7743C110.499 42.8941 110.603 43.0028 110.718 43.0982L110.625 44.7965C110.625 45.1651 110.472 45.3231 110.181 45.4403C109.889 45.5575 109.373 45.8353 109.291 46.4567C109.265 46.639 109.315 46.8239 109.429 46.9683C109.543 47.1128 109.711 47.2043 109.894 47.2216C110.266 47.265 110.924 47.3242 111.48 47.2005C112.013 47.0833 112.424 46.7121 112.424 46.0867V45.0993L112.508 43.3878L112.498 43.3681ZM89.7884 7.38478C89.9238 7.43349 90.0302 7.44929 90.0697 7.39926C90.1065 7.35186 90.0762 7.24654 89.9777 7.12542C89.9157 7.05054 89.8425 6.98571 89.7608 6.93321C89.6496 6.8612 89.5231 6.81613 89.3915 6.80156C89.2507 6.7858 89.1083 6.81094 88.9814 6.87397C88.8698 6.92682 88.7797 7.01655 88.7264 7.12806C88.6844 7.20632 88.6781 7.29894 88.7093 7.38214C88.7236 7.42526 88.7671 7.45152 88.8118 7.44402C88.8318 7.43764 88.8462 7.42244 88.8623 7.40539C88.8694 7.3978 88.8769 7.38985 88.8854 7.38214C88.9159 7.35617 88.9494 7.33406 88.9853 7.31632C89.0316 7.2892 89.0824 7.27049 89.1352 7.26102C89.2035 7.24755 89.2736 7.24489 89.3428 7.25313C89.4959 7.27971 89.6454 7.32389 89.7884 7.38478Z" fill="#030D54"/>
<path d="M117.925 32.3145C117.74 32.4289 117.542 32.52 117.334 32.5857C117.311 32.7917 117.329 33.0003 117.387 33.1992C117.781 34.3314 117.437 34.8646 116.955 35.4439C116.779 35.6629 116.58 35.862 116.362 36.0377C116.249 36.1277 116.147 36.2296 116.057 36.3418C116.046 36.354 116.036 36.3667 116.027 36.38C116.024 36.4634 116.026 36.5469 116.033 36.6301C116.079 37.0312 116.029 37.4374 115.886 37.815C115.705 38.2412 115.384 38.5925 114.976 38.8103C115.092 39.242 115.13 39.691 115.087 40.136C115.034 40.5583 114.861 40.9564 114.589 41.2827C114.708 41.9212 114.975 42.3622 115.446 42.5518L115.199 44.7899C115.199 45.1585 115.054 45.281 114.754 45.4337C114.455 45.5864 113.949 45.8287 113.865 46.4501C113.839 46.6323 113.889 46.817 114.003 46.9614C114.117 47.1057 114.285 47.1973 114.468 47.215C114.841 47.2584 115.498 47.3177 116.054 47.1939C116.58 47.0767 116.998 46.7055 116.998 46.0801V45.0927L117.261 42.3912C117.384 42.2874 117.484 42.1581 117.553 42.0121C117.78 41.5578 117.633 41.3419 117.633 40.5639C117.633 40.0017 117.802 39.9833 117.955 39.6805C118.107 39.3777 118.115 38.7734 118.115 38.1546C118.115 37.2712 118.491 37.4779 118.757 36.5485C118.917 35.9863 118.913 35.4768 118.676 34.2195C118.555 33.5836 118.842 33.5613 118.997 33.0952C119.152 32.6292 118.881 32.2921 118.852 31.6931C118.817 31.7445 118.16 32.1736 117.925 32.3145Z" fill="#030D54"/>
</svg>
