<svg width="160" height="16" viewBox="0 0 160 16" fill="none" xmlns="http://www.w3.org/2000/svg">
<path fill-rule="evenodd" clip-rule="evenodd" d="M0 8.0496C0 12.624 3.46933 15.999 8.48873 15.999L8.48975 16C11.4471 16 13.7376 14.8867 15.3937 13.552V6.8351H8.38268V9.77115H11.9591V11.9827C11.0596 12.607 9.89707 12.9096 8.61213 12.9096C5.74142 12.9096 3.7151 10.8353 3.7151 7.9995V7.94739C3.7151 5.332 5.75774 3.13747 8.348 3.13747C10.2152 3.13747 11.3248 3.71166 12.574 4.70771L14.7941 2.12639C13.1043 0.759567 11.3605 0 8.45406 0C3.57335 0 0 3.61045 0 7.9995V8.0496ZM17.7535 8.0506C17.7535 12.4374 21.3284 15.9985 26.3126 15.999C31.2989 15.9985 34.9084 12.3883 34.9084 7.9995V7.94839C34.9084 3.56135 31.332 0 26.3483 0C21.3636 0 17.7535 3.61045 17.7535 7.9995V8.0506ZM31.1923 7.9995C31.1923 5.35003 29.167 3.13948 26.3136 3.13948C23.4603 3.13948 21.4696 5.29893 21.4696 7.9494V7.9995C21.4696 10.649 23.496 12.8595 26.3667 12.8595C29.2374 12.8595 31.2107 10.7001 31.2107 8.0496V7.9995H31.1923ZM37.0582 8.01653C37.0582 12.4888 40.4928 15.999 45.1431 15.999L45.1441 15.998C48.0668 15.998 49.9167 14.9178 51.5891 13.2824L50.3909 12.1501C48.8418 13.567 47.3968 14.3787 45.1767 14.3787C41.6197 14.3787 38.9254 11.5598 38.9254 7.96543C38.9254 4.37001 41.6023 1.6023 45.1767 1.6023C47.3611 1.6023 48.8928 2.49715 50.2491 3.72969L51.5004 2.44705C49.8973 0.996054 48.1361 0 45.2124 0C40.4745 0 37.0582 3.59441 37.0582 8.01653ZM69.4844 15.7294H67.5305L65.6276 11.645H56.837L54.9177 15.7294H53.0515L60.4144 0.151312H62.1215L69.4844 15.7294ZM57.5774 10.0758L61.2588 2.19352L64.9229 10.0758H57.5774ZM83.2231 15.7294L78.5381 9.72105H73.9246V15.7294H72.1094V0.269556H79.049C82.6061 0.269556 84.8792 2.10935 84.8792 4.89409C84.8792 7.47742 83.0293 8.97952 80.4941 9.41843L85.4421 15.7314H83.2231V15.7294ZM73.9246 1.87286H78.9073C81.5149 1.87286 83.0293 3.02123 83.0293 4.9452C83.0293 6.95334 81.2854 8.15181 78.8726 8.15181H73.9246V1.87286ZM94.0022 15.7294H88.4015V0.269556H94.0022C99.0757 0.269556 102.581 3.61145 102.581 7.98246C102.581 12.3535 99.0757 15.7284 94.0022 15.7284V15.7294ZM90.2158 1.87286H94.0022C98.0885 1.87286 100.696 4.57343 100.696 8.01553C100.696 11.4596 98.0885 14.1081 94.0022 14.1081H90.2158V1.87286ZM106.015 0.269556H107.831V14.1261H116.917V15.7294H106.015V0.269556ZM121.426 1.85683H131.273V0.269556H119.611V15.7304H131.396V14.1432H121.426V8.725H130.233V7.13772H121.426V1.85683ZM140.432 7.15576C144.025 7.91533 145.681 9.1639 145.681 11.5448C145.681 14.2103 143.373 15.9319 140.167 15.9319C137.614 15.9319 135.517 15.1202 133.579 13.4507L134.707 12.1681C136.398 13.6191 138.001 14.3626 140.238 14.3626C142.405 14.3626 143.831 13.2824 143.831 11.7122C143.831 10.2612 143.022 9.43446 139.64 8.75907C135.923 7.98246 134.215 6.8351 134.215 4.26981C134.215 1.78869 136.451 0.0340703 139.515 0.0340703C141.876 0.0340703 143.55 0.675393 145.188 1.94201L144.131 3.28979C142.634 2.12739 141.136 1.62034 139.481 1.62034C137.385 1.62034 136.046 2.7166 136.046 4.13553C136.063 5.61859 136.893 6.43026 140.431 7.15576H140.432ZM160 11.5448C160 9.1639 158.345 7.91533 154.751 7.15576C151.194 6.43026 150.366 5.61859 150.366 4.13553C150.366 2.7166 151.704 1.62034 153.801 1.62034C155.456 1.62034 156.952 2.12739 158.451 3.28979L159.506 1.94201C157.869 0.675393 156.195 0.0340703 153.834 0.0340703C150.77 0.0340703 148.533 1.78869 148.533 4.26981C148.533 6.8351 150.242 7.98246 153.959 8.75907C157.339 9.43446 158.15 10.2612 158.15 11.7122C158.15 13.2824 156.723 14.3626 154.556 14.3626C152.32 14.3626 150.717 13.6191 149.026 12.1681L147.899 13.4507C149.837 15.1202 151.932 15.9319 154.487 15.9319C157.693 15.9319 160 14.2103 160 11.5448Z" fill="white"/>
</svg>
