<svg width="62" height="56" viewBox="0 0 62 56" fill="none" xmlns="http://www.w3.org/2000/svg">
<path fill-rule="evenodd" clip-rule="evenodd" d="M19.4482 0.657979C19.7021 0.944984 19.84 1.20557 19.84 1.75735C19.84 2.01401 19.84 2.21763 19.8108 2.51978C19.7534 3.62513 19.7273 4.41346 19.7016 5.39915C19.7018 5.73688 19.7018 5.96983 19.6724 6.33678C19.657 6.52891 19.6615 6.6726 19.6674 6.85446V6.8545V6.85454V6.85458V6.85462V6.85465V6.85469V6.85472C19.6708 6.96037 19.6743 7.07083 19.6743 7.19721C19.6743 7.32893 19.6674 7.46055 19.6602 7.59609C19.6532 7.72643 19.6466 7.84952 19.6466 7.97892C19.6466 8.08247 19.6521 8.17402 19.6578 8.26754L19.6587 8.28106C19.666 8.40008 19.6743 8.53514 19.6743 8.69768V9.48844L19.6906 9.70042C19.7115 9.96307 19.7295 10.1899 19.7295 10.4797C19.7295 10.5949 19.7261 10.6981 19.7227 10.7977C19.7168 10.9686 19.7122 11.1035 19.7273 11.2727L19.7295 11.324C19.7295 11.5007 19.7416 11.6556 19.7546 11.8197L19.7547 11.8216L19.7547 11.8218C19.7695 12.0099 19.7848 12.2047 19.7848 12.4495C19.7848 12.6745 19.7699 12.8681 19.7556 13.0553L19.7555 13.0565C19.7421 13.23 19.7295 13.3938 19.7295 13.575C19.7295 13.7992 19.736 13.9841 19.7429 14.1798C19.7499 14.3768 19.757 14.5807 19.757 14.8253C19.757 15.1468 19.743 15.469 19.7293 15.7807L19.7293 15.7811L19.7293 15.7821L19.7293 15.7822C19.7159 16.0885 19.7022 16.4051 19.7018 16.7203C19.7104 16.9229 19.7217 17.1285 19.7331 17.3362L19.7333 17.3398L19.7333 17.34V17.34V17.34V17.34V17.3401V17.3401C19.7586 17.8028 19.7848 18.2812 19.7848 18.7645V22.0623C19.7848 22.185 19.7868 22.2974 19.7886 22.4023L19.7887 22.4049L19.7887 22.4054C19.7971 22.881 19.8045 23.2917 19.6029 23.7803L19.5667 23.8681L19.5444 23.8936C19.5073 23.9693 19.4478 24.0895 19.3577 24.1986C19.1356 24.4925 18.7455 24.6558 18.2536 24.6605C17.9857 24.6791 17.7246 24.643 17.4935 24.6109C17.331 24.5883 17.1774 24.567 17.0443 24.567C16.7652 24.567 16.5619 24.5848 16.3045 24.6075L16.041 24.6365L16.0407 24.6365L16.0407 24.6365C15.9046 24.6638 15.764 24.692 15.553 24.692L15.465 24.6849C15.4228 24.6782 15.2116 24.6412 15.0234 24.5615C14.5953 24.411 14.1104 23.966 14.1104 23.1846C14.1104 23.0873 14.1175 22.8693 14.1247 22.6513L14.1299 22.4908C14.1222 22.3091 14.1268 22.1494 14.1317 21.9828L14.1318 21.9807C14.1349 21.8758 14.1382 21.7653 14.1382 21.6401L14.1391 21.6062C14.1491 21.4373 14.1657 20.8357 14.1657 18.7019C14.1657 18.5572 14.1738 18.4388 14.1809 18.3343C14.1876 18.2358 14.1934 18.1508 14.1934 18.0456C14.1934 17.8274 14.1651 17.6385 14.1325 17.4199L14.1322 17.4184L14.1322 17.4183C14.0961 17.1776 14.0552 16.9048 14.0552 16.5763C14.0552 16.405 14.0626 16.2625 14.0699 16.1246L14.0699 16.1239L14.0699 16.1235L14.0699 16.1234C14.0766 15.9947 14.0829 15.873 14.0829 15.732V13.6061V13.6059C14.0829 13.5033 14.0829 13.1962 13.9981 12.8718C13.9817 12.8262 13.9653 12.7837 13.9499 12.7455C13.9446 12.7322 13.9344 12.7219 13.9212 12.7168C13.8921 12.7057 13.8595 12.6955 13.8295 12.688C13.8138 12.684 13.7976 12.6885 13.7849 12.6988C13.6347 12.8204 13.4023 13.1883 13.2965 13.3558L13.2965 13.3558L13.2965 13.3558L13.2964 13.3559L13.29 13.3661L13.2898 13.3664L13.2897 13.3665L13.2896 13.3668L13.2893 13.3672L13.2892 13.3673C13.2509 13.4278 13.2147 13.4849 13.1809 13.5364C13.1406 13.6051 13.1072 13.664 13.0779 13.7156L13.0752 13.7205C12.9877 13.8749 12.9177 13.9983 12.808 14.126C12.6872 14.2844 12.59 14.3873 12.4961 14.4867L12.4949 14.4879L12.4899 14.4932L12.4899 14.4932C12.4545 14.5307 12.4179 14.5694 12.378 14.6137C12.3652 14.6338 12.3538 14.6521 12.3433 14.669L12.343 14.6695C12.2977 14.7424 12.2463 14.825 12.158 14.925C12.0611 15.0345 11.9959 15.1275 11.9134 15.2452L11.9128 15.2461L11.8265 15.3629C11.7161 15.4878 11.6523 15.5853 11.5589 15.7438L11.5498 15.7587C11.4712 15.8833 11.4027 15.9782 11.3364 16.0699L11.3319 16.0762L11.3318 16.0762C11.2778 16.151 11.2234 16.2262 11.1633 16.3214C11.0983 16.4245 11.0555 16.5061 11.0142 16.5852C10.8672 16.8657 10.739 17.0695 10.3361 17.3045C10.2216 17.3912 9.99666 17.5523 9.64382 17.5523C9.52234 17.5523 9.09837 17.5348 8.74251 17.3106L8.70983 17.2901C8.63563 17.2434 8.57188 17.1814 8.52268 17.108L8.29427 16.7673C8.15326 16.5745 8.06301 16.4369 7.93103 16.2276C7.8956 16.1743 7.85892 16.1107 7.82099 16.044L7.82017 16.0426C7.78066 15.9732 7.74641 15.913 7.69925 15.8463C7.66521 15.798 7.5731 15.7034 7.51763 15.6464L7.51693 15.6457C7.46253 15.5897 7.40927 15.5349 7.36391 15.4752C7.14393 15.252 6.85463 14.8915 6.72021 14.6718C6.655 14.5788 6.59364 14.4871 6.53384 14.3975C6.33671 14.1023 6.17741 13.8638 5.94812 13.7028C5.91689 13.681 5.87387 13.698 5.86675 13.7359C5.86079 13.7678 5.85399 13.8076 5.847 13.8485C5.83414 13.9239 5.82061 14.0031 5.81038 14.0438C5.79941 14.0872 5.79949 14.1419 5.79952 14.1624L5.79952 14.1651C5.79952 14.1697 5.79935 14.1747 5.79911 14.1802L5.79852 14.192V14.192C5.79729 14.216 5.79576 14.2456 5.79952 14.2754C5.80773 14.3403 5.81235 14.3823 5.81235 14.4814C5.81235 14.643 5.80414 14.7774 5.7969 14.8959L5.79677 14.8981L5.79583 14.9135L5.79583 14.9135C5.79016 15.0064 5.78461 15.0975 5.78461 15.2005C5.78461 15.4069 5.8042 15.5695 5.8269 15.7578C5.84088 15.874 5.85226 16.5547 5.8376 16.7207C5.82462 16.8685 5.81235 17.008 5.81235 17.1701C5.81235 17.3703 5.82519 17.5349 5.8388 17.7091L5.83889 17.7103L5.83889 17.7103C5.85289 17.889 5.86738 18.0739 5.86738 18.2955C5.86738 18.4028 5.86592 18.6594 5.864 18.9973C5.85823 20.034 5.86738 22.5692 5.86738 22.5692C5.86738 22.806 5.88089 23.2164 5.89403 23.6131L5.89422 23.6189V23.6189C5.90819 24.042 5.92261 24.4786 5.92261 24.7567C5.92261 24.974 5.89673 25.1548 5.87387 25.3142L5.87371 25.3153C5.85554 25.4425 5.83984 25.5524 5.83984 25.6634C5.83984 26.3432 5.38329 27.0769 4.64569 27.0769C4.54739 27.0769 4.46545 27.0672 4.39318 27.0586C4.33312 27.0514 4.28563 27.0458 4.23149 27.0458L4.1841 27.0437C3.98095 27.0261 3.80545 27.0317 3.60235 27.0382H3.60231L3.60124 27.0383C3.48553 27.042 3.3666 27.0458 3.23738 27.0458C3.0308 27.0458 2.84926 27.0529 2.65717 27.0606C2.45401 27.0686 2.24395 27.0769 1.99481 27.0769C1.53182 27.0769 0.86281 27.0097 0.400802 26.4282L0.372121 26.3888C0.237395 26.1857 0.0827686 25.8949 0.0827686 25.4447V25.1631C0.0827686 25.07 0.0769342 24.9707 0.0710793 24.871L0.070039 24.8533L0.0699801 24.8523C0.0627243 24.7289 0.055231 24.6015 0.055231 24.4753C0.055231 24.1575 0.0893695 23.7088 0.125537 23.2335L0.125945 23.2281L0.125974 23.2277C0.159062 22.7933 0.193283 22.344 0.193283 22.0691C0.193283 21.5051 0.0851067 18.1216 0.0564261 17.4901C0.0362437 17.2534 0.0428978 17.0677 0.0493319 16.8882L0.0493598 16.8874L0.0496562 16.8791C0.0524219 16.8019 0.055231 16.7234 0.055231 16.6388C0.055231 16.3094 0.0421976 16.0356 0.0284119 15.746L0.028317 15.744C0.0143923 15.4529 0 15.1519 0 14.7942C0 14.2296 0.0286287 13.7519 0.0563222 13.29C0.0841715 12.8247 0.110462 12.3851 0.110462 11.8555C0.110462 11.6279 0.103812 11.4502 0.0966933 11.2622L0.0965112 11.2573C0.0897605 11.0776 0.0827686 10.8915 0.0827686 10.6674C0.0827686 10.4188 0.0901712 10.2141 0.0973291 10.0162L0.0973687 10.0151L0.0976514 10.0073C0.104103 9.82865 0.110462 9.65254 0.110462 9.44825C0.110462 9.44825 0.138 9.09189 0.138 8.91681C0.138 8.69782 0.145513 8.516 0.152777 8.34019L0.152808 8.33946L0.153006 8.33468C0.159433 8.17952 0.165745 8.02712 0.165745 7.85381V7.79129C0.165745 7.57893 0.141325 7.39209 0.115398 7.1943L0.115284 7.19343C0.0857554 6.96774 0.055231 6.73443 0.055231 6.44706C0.055231 6.23403 0.0623794 6.05455 0.0692862 5.88115L0.0694675 5.87659C0.0763778 5.70564 0.0827686 5.54422 0.0827686 5.35261C0.0827686 4.99996 0.0758583 4.70152 0.0691557 4.41282L0.068966 4.40459C0.0622177 4.11182 0.055231 3.80872 0.055231 3.44576L0.0453591 2.29747C0.0220301 2.09586 0 1.90548 0 1.66369C0 1.07544 0.391813 0.463571 0.93155 0.208967L0.997276 0.182919C1.24975 0.101235 1.44954 0.115411 1.55714 0.123047L1.5578 0.123093C1.5578 0.123093 1.66337 0.114093 1.70437 0.103769C1.73918 0.0949802 1.77675 0.0855563 1.81878 0.0760265L1.87843 0.0625789H1.93958C2.12251 0.0625789 2.278 0.0809397 2.41535 0.0971585L2.41842 0.0975215C2.59783 0.118805 2.73703 0.135058 2.92958 0.112081L2.93003 0.112028C3.00224 0.103411 3.08399 0.0936566 3.18215 0.0936566C3.36759 0.0936566 3.46968 0.0936566 3.61953 0.0695674L3.70682 0.0625789C3.76017 0.0625789 3.8162 0.0568582 3.88074 0.0502683L3.88514 0.0498196L3.8861 0.0497195C3.9702 0.0410081 4.06554 0.0311306 4.17626 0.0311306C4.6458 0.0311306 5.10407 0.345243 5.31543 0.570887C5.4883 0.735135 5.5635 0.900809 5.64292 1.07578L5.64293 1.07579L5.64313 1.07623L5.64427 1.07876C5.66702 1.12893 5.69293 1.1861 5.72569 1.25295C5.78715 1.37822 5.84348 1.47743 5.90312 1.58247C5.96828 1.6971 6.03562 1.81564 6.1121 1.97134C6.21612 2.18756 6.28943 2.37699 6.3603 2.56018L6.36096 2.56188L6.36096 2.56189C6.41375 2.69832 6.46834 2.83941 6.53623 2.99288L6.54283 3.00855C6.67234 3.32679 6.78058 3.53529 6.93031 3.82371L6.93054 3.82414L7.0184 3.99393C7.14831 4.23888 7.2327 4.43539 7.32195 4.6432L7.32196 4.64321L7.32196 4.64323L7.32197 4.64324L7.32256 4.64461C7.3517 4.71269 7.3821 4.78337 7.41587 4.85987C7.49215 5.01674 7.5785 5.1464 7.67826 5.29618C7.75765 5.4153 7.84723 5.54978 7.93732 5.70839C8.05358 5.88671 8.12512 6.03995 8.18842 6.17559L8.18843 6.1756L8.18854 6.17583L8.19447 6.18853C8.22697 6.25811 8.26035 6.32957 8.30305 6.40772C8.41348 6.58941 8.51659 6.75008 8.61645 6.90567L8.61647 6.90571L8.61864 6.90909C8.79296 7.18064 8.95751 7.4371 9.13692 7.76233C9.16108 7.80293 9.20093 7.87833 9.24697 7.966C9.31929 8.10408 9.51689 8.48119 9.66564 8.64256C9.88516 8.44593 10.2615 7.86276 10.5213 7.46002L10.5467 7.42222C10.6641 7.25985 10.7615 7.11285 10.8645 6.95738L10.8649 6.95674C10.9667 6.80305 11.0718 6.64438 11.1975 6.46972C11.2945 6.3138 11.3849 6.1798 11.4753 6.04585L11.4811 6.03716C11.5626 5.91648 11.6444 5.79538 11.7319 5.6545C11.8027 5.5269 11.8667 5.42202 11.9308 5.31714L11.9351 5.3101C11.9917 5.21762 12.0484 5.12482 12.1111 5.01103L12.1284 4.98185C12.187 4.88899 12.241 4.81138 12.294 4.7354C12.3658 4.63264 12.4278 4.5438 12.4981 4.41668L12.5426 4.34807C12.6259 4.23811 12.6681 4.1364 12.7319 3.98223C12.755 3.92632 12.7793 3.86809 12.8065 3.8062L12.8297 3.75378L12.8626 3.70714C12.9616 3.56684 13.0324 3.46032 13.1006 3.33151L13.1132 3.30895C13.1616 3.22682 13.1982 3.15778 13.2344 3.08945L13.2385 3.08183C13.2838 2.99638 13.3292 2.91103 13.3896 2.80859L13.415 2.76925C13.4494 2.72056 13.4813 2.6774 13.5115 2.63662L13.5117 2.63631C13.5732 2.55329 13.6139 2.49829 13.6527 2.42507C13.7613 2.23 13.8504 2.06457 13.9353 1.90687L13.9356 1.90627C14.1241 1.55611 14.3022 1.22537 14.5597 0.821838C14.7393 0.53748 14.9284 0.363455 15.0551 0.267946L15.0777 0.251745C15.3238 0.0847621 15.651 0 16.0502 0C16.1725 0 16.2741 0.00952978 16.3637 0.0179478C16.4389 0.0250951 16.5039 0.0311306 16.5749 0.0311306L16.6522 0.0366367C16.8345 0.0625789 16.9415 0.0625789 17.1548 0.0625789H18.3144C18.9064 0.0625789 19.3945 0.596988 19.4482 0.657979ZM61.2833 11.2623C61.2762 11.4503 61.2695 11.628 61.2695 11.8555C61.2695 12.3851 61.2958 12.8247 61.3237 13.29L61.3238 13.2918C61.3514 13.7531 61.38 14.2303 61.38 14.7942C61.38 15.1508 61.3657 15.451 61.3518 15.7413L61.3517 15.744C61.3378 16.0343 61.3247 16.3086 61.3247 16.6388C61.3247 16.7235 61.3276 16.802 61.3303 16.8794L61.3306 16.8874C61.3371 17.0672 61.3438 17.2529 61.3236 17.4899C61.2957 18.1153 61.1867 22.2524 61.1867 22.8498C61.1867 23.108 61.2177 23.3398 61.2505 23.5852L61.2506 23.5855L61.2506 23.5857C61.2871 23.8581 61.3247 24.1397 61.3247 24.4753C61.3247 24.6017 61.3173 24.7296 61.31 24.8532L61.3089 24.871C61.3031 24.9707 61.2973 25.07 61.2973 25.1631V25.4447C61.2973 25.8949 61.1426 26.1857 61.0079 26.3888L60.9792 26.4282C60.5173 27.0097 59.8482 27.0769 59.3852 27.0769C59.1361 27.0769 58.926 27.0686 58.7228 27.0606C58.5307 27.0529 58.3492 27.0458 58.1426 27.0458C58.0135 27.0458 57.8945 27.042 57.7787 27.0383L57.7727 27.0381H57.7726C57.5717 27.0317 57.3974 27.0262 57.1959 27.0437L57.1485 27.0458C57.0943 27.0458 57.0469 27.0514 56.9868 27.0586C56.9146 27.0672 56.8327 27.0769 56.7343 27.0769C55.9967 27.0769 55.5402 26.3432 55.5402 25.6634C55.5402 25.5525 55.5245 25.4427 55.5063 25.3157L55.5063 25.3154L55.5063 25.3154L55.5061 25.3142C55.4833 25.1548 55.4574 24.974 55.4574 24.7567C55.4574 24.4712 55.4722 24.2321 55.4865 24.0011L55.4868 23.9956C55.5001 23.781 55.5126 23.5783 55.5126 23.3499L55.5137 23.316C55.5341 22.9673 55.5213 20.2314 55.5158 19.0455V19.0445L55.5157 19.0304C55.5139 18.6654 55.5126 18.3964 55.5126 18.2955C55.5126 18.074 55.5271 17.8892 55.5411 17.7105L55.5411 17.7104L55.5412 17.7091C55.5548 17.5349 55.5677 17.3704 55.5677 17.1701C55.5677 17.008 55.5554 16.8685 55.5424 16.7207C55.5278 16.5547 55.5126 16.3829 55.5126 16.1699L55.5146 16.1236C55.525 15.9925 55.5391 15.874 55.5532 15.7578L55.5532 15.7572L55.5532 15.7571C55.5759 15.5691 55.5954 15.4067 55.5954 15.2006C55.5954 15.0961 55.5898 15.004 55.584 14.9098L55.584 14.9096L55.5832 14.8981L55.5831 14.896L55.5831 14.8957V14.8956V14.8955V14.8955V14.8954C55.5759 14.777 55.5677 14.6427 55.5677 14.4815C55.5677 14.3828 55.5778 14.3024 55.586 14.2377L55.5862 14.2366C55.5897 14.2089 55.5875 14.1886 55.5855 14.1705C55.5844 14.161 55.5835 14.1521 55.5835 14.143C55.5835 14.1249 55.5855 14.0803 55.5741 14.0349C55.5637 13.9936 55.555 13.9158 55.5467 13.8409L55.5467 13.8407C55.5361 13.7446 55.526 13.6534 55.5134 13.6506L55.488 13.6664C55.2312 13.8204 55.0738 14.0563 54.8697 14.3623L54.8461 14.3977C54.7863 14.4872 54.725 14.5788 54.6598 14.6717C54.5254 14.8915 54.236 15.252 54.016 15.4753C53.9709 15.5348 53.9178 15.5894 53.8636 15.6451L53.8635 15.6452L53.863 15.6457C53.8076 15.7026 53.7149 15.7979 53.681 15.846C53.6332 15.9135 53.5988 15.974 53.5589 16.0442C53.521 16.1108 53.4845 16.1743 53.4423 16.2381C53.3167 16.4374 53.2267 16.5746 53.0857 16.7673L53.0789 16.779C53.0362 16.8536 52.9812 16.9495 52.8818 17.0463C52.8634 17.0718 52.8458 17.0929 52.8311 17.11L52.7561 17.2116L52.6376 17.3106C52.2816 17.5348 51.8577 17.5523 51.7362 17.5523C51.3833 17.5523 51.1584 17.3913 51.044 17.3045C50.641 17.0695 50.5128 16.8658 50.3658 16.5852C50.3245 16.5061 50.2817 16.4245 50.2167 16.3214C50.1576 16.2277 50.104 16.1535 50.0508 16.0799L50.0435 16.0698L50.0432 16.0694L50.043 16.0691L50.0429 16.069C49.9769 15.9775 49.9085 15.8829 49.8302 15.7587L49.8211 15.7438C49.7278 15.5853 49.6638 15.4878 49.5535 15.3629L49.5152 15.3144L49.4672 15.2461L49.4666 15.2452L49.4666 15.2452L49.4665 15.2451L49.4665 15.245C49.384 15.1275 49.3188 15.0345 49.2224 14.9254C49.1338 14.8252 49.0824 14.7426 49.0372 14.6697L49.0368 14.6692L49.0236 14.6479L49.002 14.6138C48.9601 14.5673 48.9219 14.5269 48.885 14.4879C48.7907 14.3881 48.6933 14.285 48.572 14.1261C48.4622 13.9982 48.3922 13.8748 48.3046 13.7201L48.2959 13.7047C48.2681 13.6558 48.2366 13.6004 48.1991 13.5364C48.164 13.483 48.1263 13.4235 48.0864 13.3604L48.0836 13.3559L48.0835 13.3558L48.0835 13.3557C47.9776 13.1881 47.7452 12.8202 47.595 12.6986C47.5822 12.6884 47.5659 12.6839 47.5501 12.688C47.5205 12.6954 47.4881 12.7056 47.459 12.7167C47.4457 12.7218 47.4354 12.7322 47.4301 12.7456C47.4146 12.7838 47.3983 12.8262 47.3818 12.8718C47.2971 13.1964 47.2971 13.5037 47.2971 13.6061V15.732C47.2971 15.873 47.3034 15.9946 47.3101 16.1233L47.3101 16.124L47.3102 16.1247C47.3174 16.2625 47.3248 16.405 47.3248 16.5763C47.3248 16.9044 47.284 17.1769 47.248 17.4174L47.2478 17.4184L47.2477 17.4189C47.2149 17.6379 47.1866 17.8271 47.1866 18.0456C47.1866 18.1508 47.1924 18.2358 47.1991 18.3343C47.2062 18.4388 47.2143 18.5572 47.2143 18.7019C47.2143 19.164 47.2143 19.498 47.2408 19.95L47.2418 19.9839C47.2418 20.0869 47.244 20.2311 47.2464 20.3929L47.2465 20.3948L47.2465 20.3983L47.2465 20.3987V20.399L47.2468 20.4177C47.2536 20.8605 47.2613 21.3609 47.2418 21.6372V22.3219C47.2418 22.3942 47.2473 22.4608 47.2527 22.5271L47.2527 22.5272L47.2538 22.541C47.2612 22.6324 47.2696 22.7362 47.2696 22.8534C47.2696 23.6346 46.7847 24.0796 46.3567 24.2303C46.1684 24.3099 45.9572 24.3469 45.9151 24.3537L45.827 24.3608C45.6161 24.3608 45.4755 24.3326 45.3397 24.3053L45.3389 24.3052L45.281 24.2937L45.0755 24.2762C44.8181 24.2536 44.6148 24.2358 44.3357 24.2358C44.2026 24.2358 44.049 24.2571 43.8865 24.2796C43.6554 24.3118 43.3942 24.3481 43.1264 24.3293C42.6345 24.3246 42.2444 24.1612 42.0222 23.8673C41.9322 23.7582 41.8726 23.638 41.8356 23.5623L41.8133 23.5368L41.7771 23.4491C41.6047 23.0312 41.5806 22.945 41.5906 22.5495L41.5908 22.5448C41.5927 22.4654 41.5952 22.3643 41.5952 22.228V18.7645C41.5952 18.28 41.6215 17.8005 41.6469 17.3367L41.6469 17.3362L41.647 17.3339L41.647 17.3336L41.6471 17.3334L41.6471 17.3331L41.6471 17.3328C41.6584 17.1262 41.6696 16.9218 41.6782 16.7203C41.6778 16.4047 41.6641 16.0877 41.6507 15.7811L41.6506 15.7809C41.637 15.4691 41.623 15.1468 41.623 14.8253C41.623 14.5807 41.6301 14.3769 41.6371 14.1798L41.6371 14.1789C41.644 13.9835 41.6504 13.7989 41.6504 13.575C41.6504 13.3944 41.6379 13.2309 41.6247 13.0578L41.6246 13.0574L41.6246 13.057L41.6246 13.0565C41.6101 12.8689 41.5952 12.675 41.5952 12.4495C41.5952 12.2047 41.6105 12.01 41.6252 11.8218L41.6254 11.8197C41.6383 11.6557 41.6504 11.5007 41.6504 11.324L41.6528 11.2727C41.6677 11.1035 41.6632 10.9686 41.6573 10.7977C41.6539 10.6981 41.6504 10.5949 41.6504 10.4798C41.6504 10.1899 41.6685 9.96307 41.6894 9.70042L41.7057 9.48849V8.69768C41.7057 8.53514 41.714 8.40008 41.7213 8.28106L41.7221 8.26768C41.7278 8.17411 41.7334 8.08252 41.7334 7.97892C41.7334 7.85014 41.7269 7.72759 41.72 7.59793L41.7199 7.59749L41.7199 7.59609C41.7125 7.46055 41.7057 7.32893 41.7057 7.19721C41.7057 7.07073 41.7092 6.96018 41.7126 6.85451C41.7185 6.6726 41.723 6.52891 41.7076 6.33715C41.6782 5.96983 41.6782 5.73688 41.6782 5.38412C41.6527 4.4134 41.6265 3.62513 41.5692 2.51983C41.54 2.21763 41.54 2.01401 41.54 1.75735C41.54 1.20557 41.6779 0.944984 41.9324 0.657184C41.9854 0.5972 42.4734 0.0625789 43.0656 0.0625789H44.2252C44.4384 0.0625789 44.5455 0.0625789 44.7277 0.0366367L44.8051 0.0311306C44.8761 0.0311306 44.9411 0.0250951 45.0163 0.0179478C45.1059 0.00952978 45.2075 0 45.3298 0C45.729 0 46.0562 0.0847621 46.3023 0.251745L46.3249 0.267946C46.4516 0.363455 46.6406 0.537427 46.8216 0.823903C47.0776 1.22519 47.2556 1.55577 47.444 1.9057L47.4442 1.9059C47.5292 2.06394 47.6184 2.22965 47.7211 2.41363C47.7661 2.49839 47.8068 2.55329 47.8684 2.63652C47.8929 2.66964 48.1069 3.03575 48.2136 3.21809L48.2136 3.21812L48.2668 3.30895C48.2668 3.30895 48.4184 3.56684 48.5174 3.70714L48.5503 3.75383L48.5735 3.8062C48.6007 3.86809 48.625 3.92632 48.6481 3.98229C48.712 4.1364 48.7542 4.23816 48.8374 4.34807C48.8374 4.34807 49.0142 4.63264 49.086 4.73551C49.139 4.81153 49.3911 5.22216 49.4491 5.31688C49.5132 5.42186 49.8213 5.92239 49.9047 6.04585C49.9952 6.1798 50.0855 6.3138 50.1825 6.46972C50.3081 6.64438 50.4132 6.80289 50.5149 6.95648C50.6182 7.11229 50.8502 7.44694 50.8502 7.44694C51.1175 7.86128 51.4948 8.44582 51.7144 8.64256C51.8631 8.48124 52.0607 8.10413 52.133 7.96605C52.179 7.87833 52.2189 7.80293 52.251 7.7483C52.4225 7.4371 52.5872 7.18048 52.7615 6.90883L52.7636 6.90546L52.7637 6.90534L52.7638 6.90526C52.8635 6.74982 52.9666 6.5893 53.077 6.40777C53.1194 6.33007 53.1526 6.25901 53.1849 6.18984L53.1915 6.17583L53.1916 6.17559C53.2549 6.03995 53.3264 5.8867 53.4427 5.70839C53.5321 5.55094 53.6211 5.41725 53.7 5.29872L53.7001 5.29864L53.7016 5.29634L53.7021 5.29559L53.7021 5.29552C53.8017 5.14604 53.888 5.01651 53.9641 4.85987C53.9951 4.78974 54.0232 4.72439 54.0502 4.66156L54.0574 4.64492C54.1468 4.43643 54.4497 3.82361 54.4497 3.82361C54.5995 3.53523 54.8438 2.99288 54.8438 2.99288C54.912 2.83876 54.9668 2.69709 55.0198 2.55996L55.0198 2.55982C55.0907 2.37673 55.1639 2.18745 55.2657 1.97568C55.3444 1.81558 55.4117 1.69699 55.4769 1.58242L55.477 1.58219C55.5366 1.47724 55.5929 1.37813 55.6544 1.25285C55.6874 1.18549 55.7135 1.12781 55.7364 1.07731L55.7368 1.07639L55.737 1.07584C55.8164 0.900904 55.8917 0.735103 56.0645 0.570887C56.2758 0.345349 56.7342 0.0311306 57.2038 0.0311306C57.3144 0.0311306 57.4097 0.0409972 57.4938 0.0497051L57.4949 0.0498196C57.5613 0.0566493 57.7605 0.0695674 57.7605 0.0695674C57.9103 0.0936566 58.0124 0.0936566 58.1979 0.0936566C58.2961 0.0936566 58.378 0.103433 58.4502 0.112057L58.4504 0.112081C58.643 0.135005 58.7821 0.118805 58.9616 0.0975215L58.9644 0.097188C59.1018 0.080962 59.2574 0.0625789 59.4404 0.0625789L59.5613 0.0760265C59.6033 0.0855563 59.6408 0.0949802 59.6756 0.103769C59.6862 0.106444 59.7219 0.107551 59.7732 0.109147C59.92 0.113713 60.1954 0.122275 60.3828 0.182919L60.4484 0.208967C60.9882 0.463571 61.38 1.07533 61.38 1.66369C61.38 1.90548 61.3579 2.09586 61.3346 2.29747L61.3247 2.3844V3.44576C61.3247 3.81213 61.3177 4.1175 61.3108 4.41282L61.3107 4.41692C61.3041 4.70435 61.2973 5.00163 61.2973 5.35261C61.2973 5.54422 61.3037 5.70569 61.3105 5.87659L61.3107 5.88076C61.3176 6.05434 61.3247 6.23397 61.3247 6.44706C61.3247 6.73442 61.2942 6.96771 61.2647 7.19338L61.2647 7.19345L61.2646 7.1943C61.2387 7.39209 61.2143 7.57893 61.2143 7.79129C61.2143 7.79129 61.2207 8.18264 61.2272 8.33946L61.2272 8.33982V8.33993V8.34003V8.34012V8.3402V8.34027V8.34033C61.2345 8.5161 61.242 8.69793 61.242 8.91681C61.242 9.09189 61.242 9.21832 61.2634 9.36407C61.2634 9.36407 61.2761 9.83378 61.2826 10.0151L61.2828 10.0194L61.2828 10.0198V10.02V10.0201V10.0202V10.0203V10.0203C61.2899 10.217 61.2973 10.4206 61.2973 10.6674C61.2973 10.8913 61.2903 11.0773 61.2835 11.257L61.2833 11.2623ZM29.733 14.3124C29.5582 14.3124 29.0686 14.4135 28.8587 14.5485C28.4741 14.7848 28.3693 15.2575 28.3693 15.9325C28.3693 16.3351 28.3913 17.0153 28.4004 17.294C28.4027 17.3658 28.4042 17.411 28.4042 17.4178C28.544 18.3629 29.1385 18.5316 29.5582 18.6331C30.2575 18.8017 32.5465 18.8017 32.7216 18.8017C32.9663 18.8017 33.211 18.7933 33.4558 18.7849C33.7005 18.7765 33.9453 18.7681 34.19 18.7681C34.3695 18.7681 34.549 18.777 34.7238 18.7856C34.8895 18.7938 35.051 18.8017 35.2042 18.8017C35.3614 18.8017 35.4925 18.7933 35.6237 18.7849L35.6237 18.7849C35.7549 18.7765 35.886 18.7681 36.0433 18.7681H36.0434C36.3583 18.7681 36.6029 18.7681 36.9176 18.7342C37.0924 18.7342 37.2322 18.7173 37.3721 18.7005L37.3721 18.7005C37.512 18.6836 37.6518 18.6667 37.8267 18.6667C38.2464 18.6667 38.7709 18.8693 38.8757 18.9368C38.9807 19.0043 39.0855 19.1055 39.1207 19.173C39.4002 19.5106 39.5052 20.1857 39.5052 20.4897C39.5052 21.0863 39.5376 21.2616 39.5803 21.493L39.5803 21.4931L39.5803 21.4932C39.6004 21.6022 39.6228 21.7236 39.6451 21.9072C39.68 22.1773 39.68 22.5486 39.68 22.8187C39.68 23.2914 39.5752 23.9325 38.4911 23.9325C38.268 23.9325 38.0787 23.9163 37.8858 23.8998C37.6856 23.8827 37.4816 23.8653 37.2322 23.8653C37.0156 23.8653 36.841 23.8854 36.6271 23.9101L36.627 23.9101L36.6265 23.9102C36.5643 23.9174 36.4988 23.9249 36.4279 23.9325C36.2882 23.9325 36.1658 23.941 36.0435 23.9494C35.9211 23.9579 35.7987 23.9664 35.6587 23.9664C35.3396 23.9664 35.0744 23.949 34.8129 23.9319H34.8129H34.8128H34.8128H34.8128H34.8127C34.5587 23.9153 34.3082 23.8989 34.0152 23.8989C33.141 23.8989 31.0966 23.9325 30.2575 23.9664C30.078 23.9664 29.9261 23.9752 29.7783 23.9839C29.6381 23.992 29.5015 24 29.3484 24C28.9802 24 28.6929 23.9741 28.3683 23.9449L28.2294 23.9325H27.0405C26.9005 23.9325 26.7781 23.9241 26.6557 23.9157C26.5333 23.9073 26.411 23.8989 26.2713 23.8989C26.044 23.8989 25.8517 23.9073 25.6593 23.9157C25.4669 23.9241 25.2746 23.9325 25.0473 23.9325C24.9846 23.9325 24.9308 23.9282 24.8813 23.9242H24.8813H24.8812C24.7928 23.917 24.7175 23.9109 24.6278 23.9325H23.9983C23.5089 23.9325 23.1243 23.7977 22.9144 23.5613C22.8793 23.5276 22.7745 23.3926 22.7046 23.2239C22.5647 23.0213 22.4248 22.7851 22.4248 22.346C22.4248 22.0762 22.4599 21.7722 22.4947 21.5023C22.4947 21.2049 22.4626 20.9229 22.431 20.6459C22.416 20.5142 22.4012 20.3837 22.3899 20.2532V20.1857C22.3899 20.0804 22.3941 19.9872 22.3981 19.8978C22.4057 19.7293 22.4127 19.574 22.3899 19.3756C22.3899 19.2575 22.3812 19.1563 22.3724 19.0551C22.3636 18.9538 22.3548 18.8525 22.3548 18.7342V16.1015C22.3548 15.9494 22.3723 15.8143 22.3898 15.6793C22.4073 15.5443 22.4248 15.4093 22.4248 15.2575C22.4248 15.0167 22.4067 14.8111 22.3888 14.6093C22.3717 14.4148 22.3548 14.2239 22.3548 14.0086V13.671C22.3548 13.3503 22.3461 13.0719 22.3374 12.7934C22.3287 12.515 22.32 12.2365 22.32 11.9158V10.5316C22.32 10.2279 22.32 9.99168 22.3548 9.68795C22.3603 9.641 22.3657 9.59567 22.3709 9.55146L22.371 9.55082V9.55079C22.3999 9.30899 22.4248 9.10058 22.4248 8.84398C22.4446 8.5206 22.4198 8.25078 22.3945 7.97416C22.3748 7.75991 22.3548 7.54158 22.3548 7.29111C22.3548 6.9745 22.3719 6.69906 22.3891 6.42011C22.4069 6.13396 22.4248 5.84411 22.4248 5.50232V4.69198C22.4599 4.45574 22.4599 4.25318 22.4599 4.01695C22.4599 3.69625 22.4336 3.43462 22.4074 3.17299C22.3811 2.91135 22.3548 2.64972 22.3548 2.32902C22.3548 1.38388 22.4599 0.843965 22.8793 0.438793C23.0543 0.236181 23.3339 0.0675547 23.7536 0.0675547C23.9942 0.0675547 24.201 0.0757363 24.4113 0.0840586C24.629 0.0926722 24.8505 0.101437 25.1172 0.101437C25.4844 0.101437 25.7991 0.0845479 26.1138 0.0676592C26.4285 0.0507705 26.7433 0.0338818 27.1104 0.0338818C27.4251 0.0338818 27.6961 0.0507705 27.9672 0.0676592C28.2382 0.0845479 28.5092 0.101437 28.8239 0.101437C29.0338 0.101437 29.2174 0.092964 29.4009 0.0844925C29.5845 0.0760231 29.768 0.0675547 29.9777 0.0675547H30.4673C30.7471 0.0675547 32.3718 0.0338818 32.6165 0H32.7216C32.7915 0 32.8701 0.00846883 32.9488 0.0169385C33.0275 0.0254097 33.1061 0.0338818 33.1761 0.0338818C33.3031 0.0338818 33.4302 0.0247489 33.5524 0.0159664C33.6655 0.00783296 33.7745 0 33.8754 0C34.2949 0 34.6533 0.0253552 35.0117 0.0507124C35.3701 0.0760735 35.7286 0.101437 36.1484 0.101437C36.4106 0.101437 36.6379 0.0845471 36.8652 0.067658C37.0925 0.0507697 37.3197 0.0338818 37.582 0.0338818C38.2812 0.0338818 38.7709 0.371238 38.7709 1.11408C38.7709 1.33785 38.7527 1.52649 38.7349 1.71138C38.7177 1.88904 38.7009 2.06323 38.7009 2.26178C38.7009 2.54853 38.7271 2.78478 38.7533 3.02106C38.7795 3.2574 38.8057 3.49378 38.8057 3.78077C38.8057 4.17768 38.707 4.31272 38.5511 4.52589L38.5511 4.52591L38.5511 4.52595L38.551 4.52605C38.5214 4.56655 38.4897 4.60988 38.4563 4.65835C38.3863 4.75948 38.3163 4.82703 38.2113 4.89454C38.1775 4.91082 38.154 4.92317 38.1352 4.93302C38.0761 4.964 38.0643 4.97016 37.9317 4.99571C37.5469 5.16465 37.2673 5.16465 37.1274 5.16465C36.9352 5.16465 36.7778 5.15618 36.6204 5.14771C36.463 5.13924 36.3056 5.13077 36.1133 5.13077C35.816 5.13077 35.5713 5.13924 35.3265 5.14771C35.0817 5.15618 34.837 5.16465 34.5398 5.16465C34.1034 5.16465 33.9989 5.15004 33.7904 5.12087C33.6815 5.10562 33.5441 5.0864 33.316 5.06321C32.8963 4.99571 32.4766 4.99571 32.337 4.99571C30.4137 4.99571 28.3693 5.26583 28.3693 6.68364C28.3693 6.79196 28.3686 6.89631 28.3679 6.99676V6.99693V6.99709V6.99724V6.99739V6.99754C28.3616 7.86682 28.3574 8.44372 28.8587 8.77643C28.8781 8.78891 28.8964 8.8014 28.9143 8.81367L28.9143 8.8137C28.9932 8.8678 29.0661 8.9177 29.2085 8.94511C29.4183 8.97904 31.6026 9.1141 32.267 9.1141C32.6361 9.1141 32.835 9.12346 33.0229 9.13231C33.191 9.14022 33.3503 9.14772 33.6145 9.14772C33.8916 9.1669 34.1799 9.14271 34.4732 9.11811C34.6978 9.09925 34.9254 9.08016 35.1529 9.08016C35.2405 9.08016 35.3221 9.0791 35.3984 9.07811C35.9313 9.0712 36.2065 9.06762 36.4817 9.45145C36.6916 9.72157 36.7616 9.89025 36.7616 10.1604C36.7616 10.2111 36.7441 10.4474 36.7266 10.6836C36.7091 10.9199 36.6916 11.1562 36.6916 11.2069C36.6717 11.3417 36.6574 11.427 36.6472 11.488L36.6472 11.4882L36.6471 11.4884C36.6372 11.548 36.6311 11.5843 36.6274 11.6208C36.6217 11.6777 36.6217 11.7351 36.6217 11.8819C36.6217 12.2364 36.6302 12.3965 36.6354 12.4925C36.6379 12.5395 36.6396 12.5712 36.639 12.6028C36.6379 12.6677 36.6273 12.7325 36.5951 12.9301L36.5951 12.9302L36.5948 12.9318C36.5833 13.0019 36.5691 13.0888 36.5517 13.1983C36.5416 13.2669 36.5344 13.3212 36.5285 13.3663L36.5285 13.3664C36.5139 13.4768 36.5067 13.5316 36.4817 13.6035C36.2371 14.1437 35.7126 14.346 34.8734 14.346H33.0549C32.915 14.346 32.7927 14.3376 32.6704 14.3292L32.6703 14.3292L32.6703 14.3292C32.548 14.3208 32.4256 14.3124 32.2857 14.3124C32.0411 14.346 30.3461 14.346 30.1015 14.346L29.733 14.3124ZM19.1449 37.4458C19.1449 37.7255 19.1637 37.9679 19.1825 38.2104C19.2012 38.4528 19.22 38.6952 19.22 38.975C19.22 39.9447 18.6926 41.6606 18.6926 41.6606C18.6723 41.7308 18.6547 41.7929 18.6384 41.8505C18.5941 42.0073 18.5591 42.131 18.5042 42.2947C18.439 42.402 18.3989 42.497 18.355 42.6011C18.3227 42.6777 18.2883 42.7592 18.2402 42.8542C18.014 43.2644 17.7882 43.5254 17.4866 43.8613C17.2604 44.197 16.9213 44.6072 16.6198 44.9428C16.3182 45.2042 15.4138 46.1364 15.263 46.3978C15.1123 46.6587 15.1123 46.9197 15.1123 46.9943C15.1469 47.5068 15.5291 47.8003 15.738 47.9607L15.7635 47.9803L15.7907 48.0016C16.2854 48.3622 16.3305 48.3847 16.5595 48.4994L16.5595 48.4995C16.662 48.5508 16.8013 48.6206 17.0343 48.7474C17.1097 48.822 17.4113 49.0084 17.7128 49.1205C17.7777 49.1526 17.9053 49.1847 18.0447 49.2198C18.2293 49.2662 18.4345 49.3178 18.5418 49.3815C19.1169 49.7015 19.1092 50.2929 19.1073 50.4444L19.1071 50.4633C19.1071 50.6174 19.0942 50.746 19.0818 50.8702L19.0818 50.8703C19.0641 51.0466 19.0473 51.2142 19.0695 51.433C19.0695 51.5823 19.0789 51.7128 19.0883 51.8433C19.0977 51.9738 19.1071 52.1043 19.1071 52.2535C19.1071 52.552 19.0789 52.8131 19.0506 53.0742C19.0224 53.3352 18.9942 53.5963 18.9942 53.8948C18.9942 54.0439 19.0035 54.1743 19.0129 54.3049C19.0223 54.4354 19.0317 54.566 19.0317 54.7153C19.0317 55.4141 18.6017 55.6221 18.2994 55.7682C18.2791 55.7781 18.2593 55.7877 18.2402 55.7971C18.1649 55.8342 17.9011 55.9464 17.7128 55.9835C17.6279 56.0113 17.5431 55.9974 17.4901 55.9887L17.4899 55.9887C17.4797 55.987 17.4707 55.9855 17.4631 55.9846C17.4575 55.9839 17.4527 55.9835 17.4488 55.9835C17.2983 55.9835 17.0721 55.9835 16.733 55.9089C15.8559 55.7642 15.4043 55.4793 14.9998 55.2241L14.9618 55.2001C14.5469 54.9391 14.2832 54.7528 14.0949 54.6035C13.9629 54.5102 13.8687 54.4169 13.7745 54.3237L13.7744 54.3236C13.6802 54.2304 13.5861 54.1372 13.4542 54.044C12.7381 53.4703 12.3306 53.0188 12.0083 52.6616C11.9744 52.6241 11.9414 52.5875 11.9092 52.552C11.6888 52.3339 11.5757 52.2043 11.4873 52.1029L11.4872 52.1029C11.3942 51.9961 11.3283 51.9206 11.1931 51.8058C11.0638 51.6993 10.9467 51.6292 10.8209 51.554L10.8209 51.554L10.8209 51.5539L10.8208 51.5539C10.7266 51.4975 10.6274 51.4382 10.5145 51.3584C10.281 51.1735 10.1524 51.0601 10.0548 50.9741L10.0548 50.974C9.83722 50.7823 9.77309 50.7258 9.0449 50.3141C8.99872 50.2988 8.94006 50.2712 8.87657 50.2413C8.78431 50.1978 8.68183 50.1496 8.59252 50.1274C8.40419 50.0527 8.25342 50.0527 8.17803 50.0527C8.10267 50.0527 8.04613 50.0435 7.98959 50.0342L7.98954 50.0342C7.93298 50.0249 7.87643 50.0156 7.80104 50.0156C7.31116 50.0156 6.9345 50.4258 6.85911 50.5751C6.72886 50.7685 6.71113 50.8225 6.66012 50.978C6.65208 51.0025 6.64321 51.0295 6.63295 51.06L6.60846 51.1023C6.54485 51.2121 6.52282 51.2502 6.51133 51.2912C6.50524 51.3129 6.50211 51.3354 6.49733 51.3699C6.4938 51.3954 6.48936 51.4273 6.48218 51.4702C6.40674 51.694 6.40674 52.1043 6.40674 52.6266C6.40674 53.0421 6.44331 53.2587 6.47819 53.4653L6.4782 53.4654C6.49341 53.5555 6.5083 53.6437 6.51968 53.7456C6.54031 53.8268 6.5497 53.897 6.56004 53.9741C6.56868 54.0386 6.57798 54.108 6.59507 54.193C6.60039 54.2139 6.60644 54.2364 6.61293 54.2603L6.61302 54.2607C6.65272 54.4076 6.70834 54.6134 6.70834 54.9017C6.70834 55.7971 5.91686 55.9464 5.6907 55.9464C5.43654 55.9464 5.14003 55.8834 4.99148 55.8518C4.94183 55.8413 4.90871 55.8342 4.89922 55.8342C4.52255 55.7596 4.29639 55.7596 4.14562 55.7596C3.86299 55.7596 3.61804 55.7783 3.37308 55.7969C3.12813 55.8156 2.88318 55.8342 2.60054 55.8342H1.69585C1.46997 55.8717 1.3192 55.8717 1.09306 55.8717H1.09303C0.866812 55.8717 0.829306 55.8717 0.678533 55.7971C0.376933 55.6479 0 55.2001 0 54.5661C0 54.3696 0.0214276 54.2154 0.0480415 54.0239C0.0567885 53.961 0.0660958 53.894 0.0753866 53.8202C0.150773 53.4099 0.150773 53.0368 0.150773 52.9251C0.150773 52.6453 0.141383 52.4028 0.131994 52.1603C0.122604 51.9178 0.113214 51.6753 0.113214 51.3956C0.113214 50.8638 0.13963 50.4633 0.170467 49.9958C0.1764 49.9059 0.182497 49.8134 0.188601 49.7171C0.195585 49.6408 0.20258 49.5684 0.209341 49.4984C0.238938 49.192 0.264041 48.9322 0.264041 48.5982C0.264041 48.2253 0.245184 47.9176 0.226326 47.6099C0.207464 47.3022 0.188601 46.9944 0.188601 46.6213C0.188601 46.2529 0.179374 45.93 0.170035 45.6032C0.160463 45.2682 0.150773 44.9291 0.150773 44.5326C0.150773 44.2902 0.16023 44.0851 0.169687 43.8799C0.179144 43.6748 0.188601 43.4697 0.188601 43.2272C0.188601 42.9288 0.16975 42.6769 0.150901 42.4252C0.132056 42.1734 0.113214 41.9217 0.113214 41.6234C0.113214 40.7723 0.138147 40.1195 0.167844 39.342L0.16785 39.3419C0.1746 39.1652 0.181596 38.982 0.188601 38.7886C0.202759 38.5996 0.216914 38.421 0.230568 38.2489L0.230575 38.2488C0.289668 37.5035 0.339374 36.8767 0.339374 36.0284C0.339374 35.6786 0.330159 35.3742 0.320825 35.066C0.311248 34.7497 0.301547 34.4293 0.301547 34.0514V33.4174C0.301547 33.1376 0.2827 32.9046 0.263853 32.6715C0.245007 32.4384 0.22616 32.2054 0.22616 31.9256C0.22616 31.8569 0.225956 31.7906 0.225759 31.7266C0.223283 30.9216 0.221902 30.4725 0.640652 30.0234C0.904693 29.7248 1.20597 29.5756 1.77124 29.5756C1.94596 29.5756 2.11057 29.5855 2.27031 29.5952C2.42088 29.6042 2.56714 29.6131 2.71349 29.6131C2.9257 29.6131 3.09848 29.6033 3.26711 29.5937C3.42786 29.5845 3.58484 29.5756 3.76863 29.5756C4.07024 29.5756 4.32467 29.585 4.57908 29.5943H4.57915H4.57921H4.57926H4.57931H4.57934C4.8336 29.6037 5.08785 29.6131 5.38915 29.6131C5.61531 29.6131 5.81316 29.6224 6.01101 29.6317L6.0111 29.6317C6.20894 29.6409 6.40679 29.6502 6.63295 29.6502C6.87331 29.6502 7.07737 29.6323 7.28523 29.614H7.28525H7.28526H7.28528C7.50105 29.595 7.7209 29.5756 7.9897 29.5756C8.25338 29.5756 8.48883 29.5663 8.72431 29.557H8.72435H8.72438H8.7244H8.72443H8.72445C8.95996 29.5477 9.19552 29.5385 9.45939 29.5385C9.83523 29.5385 10.1068 29.5641 10.4258 29.5943H10.4259H10.4259H10.4259L10.4266 29.5943L10.4278 29.5945C10.4921 29.6005 10.5584 29.6068 10.6278 29.6131C11.791 29.6449 12.0121 29.7044 12.5983 29.8618C12.6956 29.888 12.803 29.9169 12.9265 29.9487C13.2281 30.0234 13.5296 30.098 13.8309 30.2097C13.9375 30.2625 14.03 30.3106 14.1167 30.3556L14.1168 30.3557L14.1168 30.3557L14.1169 30.3558C14.2753 30.4381 14.4144 30.5104 14.5848 30.5828C14.6405 30.606 14.6935 30.6279 14.7443 30.6489L14.745 30.6492C15.3472 30.8977 15.65 31.0227 16.6576 31.8136C16.7477 31.9029 16.7861 31.9324 16.8263 31.9634L16.8263 31.9634C16.8702 31.9971 16.9163 32.0326 17.0343 32.1492C17.1683 32.2818 17.2627 32.4145 17.3957 32.6015L17.3957 32.6015C17.4872 32.73 17.5969 32.8842 17.7503 33.0818C17.7983 33.1608 17.8935 33.3 17.993 33.4455L17.9931 33.4456C18.1286 33.6438 18.2722 33.8536 18.3156 33.9397C18.391 34.0514 19.1071 35.6556 19.1449 36.6624V37.4458ZM8.47959 35.3943C8.45151 35.3887 8.42426 35.3832 8.39759 35.3777C8.24545 35.3467 8.11235 35.3196 7.95183 35.3196H7.87644C7.70147 35.3196 7.54881 35.3869 7.40133 35.452L7.40118 35.452C7.35836 35.4709 7.31598 35.4896 7.27362 35.5064C6.85085 35.6672 6.79293 35.8004 6.66374 36.0975L6.66367 36.0977C6.64318 36.1448 6.6209 36.1961 6.59509 36.2522L6.55114 36.3648C6.39494 36.7637 6.33142 36.9259 6.33142 37.3712C6.33142 37.707 6.35026 37.9961 6.36909 38.2852L6.36909 38.2852C6.38793 38.5743 6.40675 38.8633 6.40675 39.1988C6.40675 39.5114 6.38845 39.7786 6.36989 40.0497C6.35079 40.3286 6.33142 40.6115 6.33142 40.9519C6.33142 41.3304 6.36171 41.6488 6.39354 41.9833C6.4119 42.1764 6.43077 42.3748 6.44463 42.5932C6.44463 42.8542 6.44463 43.078 6.48219 43.339C6.51933 43.4868 6.55684 43.5614 6.59398 43.6353L6.59509 43.6375C6.70835 43.8613 6.93451 44.0478 7.16041 44.1224C7.27362 44.1595 8.14049 44.2341 8.29126 44.2341C8.34135 44.2218 8.46663 44.2011 8.61707 44.1763L8.6172 44.1763C8.91874 44.1265 9.32127 44.0602 9.42184 44.0106C9.53337 43.9828 9.62442 43.9346 9.72545 43.8812L9.72575 43.881C9.76097 43.8624 9.7974 43.8431 9.83634 43.8239C9.88914 43.803 9.93898 43.785 9.98754 43.7675C10.1122 43.7225 10.2282 43.6807 10.3638 43.6C10.4911 43.4996 10.5668 43.4329 10.6952 43.3199C10.757 43.2654 10.8311 43.2002 10.9291 43.1152C11.0841 42.9789 11.1997 42.8854 11.2927 42.8103C11.6066 42.5566 11.6613 42.5123 12.0975 41.7352L12.1584 41.6298C12.7133 40.6694 12.8941 40.3564 13.0398 39.3481C13.0773 39.0124 13.0773 38.7886 13.0773 38.6394C13.0773 37.8189 12.6628 36.6253 11.683 36.0284C11.2853 35.7659 10.8876 35.6768 10.695 35.6337L10.6941 35.6335L10.6929 35.6332C10.6674 35.6275 10.6455 35.6225 10.6278 35.6181C10.5854 35.6077 10.5371 35.5884 10.4811 35.566L10.4811 35.566C10.3379 35.5088 10.1448 35.4317 9.8739 35.4317C9.80806 35.4317 9.74681 35.4363 9.68855 35.4406C9.58015 35.4486 9.48208 35.4559 9.38402 35.4317C9.28985 35.4317 9.21445 35.4224 9.13905 35.413C9.06365 35.4036 8.98825 35.3943 8.89408 35.3943H8.47959ZM27.8627 39.7069C27.8627 40.3127 27.8146 40.7966 27.757 41.3746C27.7431 41.5144 27.7287 41.6596 27.7142 41.8134C27.69 42.3295 27.6975 42.7333 27.7055 43.1715C27.7098 43.404 27.7142 43.6461 27.7142 43.9199C27.7142 44.1457 27.6957 44.3432 27.6771 44.5407C27.6585 44.7382 27.64 44.9357 27.64 45.1615C27.64 45.6064 27.6631 45.9345 27.6911 46.33L27.6911 46.3301L27.6911 46.3305C27.6986 46.4364 27.7064 46.5471 27.7142 46.6662C27.7207 46.7912 27.7272 46.9104 27.7335 47.0258C27.7633 47.5708 27.7885 48.0324 27.7885 48.6222C27.7885 48.9233 27.7792 49.1773 27.77 49.4312C27.7607 49.6851 27.7515 49.9389 27.7515 50.2397C27.7515 50.5376 27.779 50.7798 27.8089 51.0425C27.8281 51.2111 27.8483 51.3882 27.8627 51.594C27.9 52.0078 27.9 52.2713 27.9 52.7225V53.6253C27.9 54.2648 27.8627 54.4905 27.566 55.0926C27.3802 55.4311 27.0831 55.9575 26.3407 55.9575C26.1179 55.9575 25.9323 55.9388 25.7467 55.9201C25.5611 55.9014 25.3755 55.8826 25.1527 55.8826C24.967 55.8826 24.8093 55.9014 24.6515 55.9201L24.6514 55.9201C24.4937 55.9388 24.3359 55.9575 24.1502 55.9575C23.7419 55.9953 23.4451 55.9953 23.0365 55.9953C23.0348 55.9953 23.0328 55.9954 23.0304 55.9954C23.0278 55.9955 23.0248 55.9956 23.0215 55.9958L23.0071 55.9965C22.8593 56.0042 22.2973 56.0332 21.9228 55.619C21.8115 55.5064 21.7 55.2806 21.7 54.9796C21.7 54.848 21.7093 54.7352 21.7186 54.6224L21.7186 54.6223C21.728 54.5095 21.7373 54.3966 21.7373 54.2648C21.7508 54.1139 21.7644 53.9705 21.7775 53.8319V53.8318C21.8362 53.2103 21.8858 52.6846 21.8858 52.0078C21.8858 51.684 21.8733 51.3981 21.8611 51.119C21.8436 50.7173 21.8267 50.3298 21.8485 49.8638C21.8485 49.6955 21.8608 49.5397 21.8729 49.3863C21.8905 49.1622 21.9078 48.9431 21.8858 48.6975C21.8858 48.3777 21.8672 48.1144 21.8487 47.8511C21.8301 47.5878 21.8115 47.3244 21.8115 47.0047V45.8384C21.8115 45.2365 21.793 44.7193 21.7744 44.2021C21.7558 43.685 21.7373 43.1678 21.7373 42.5659C21.7373 42.0814 21.7646 41.6708 21.7921 41.2563V41.2563V41.2563V41.2562V41.2562V41.2562C21.8202 40.8338 21.8485 40.4075 21.8485 39.8948C21.8485 39.5564 21.8485 39.3306 21.8115 38.9921L21.7993 38.8952L21.793 38.8465C21.7629 38.6134 21.7373 38.4152 21.7373 38.1646C21.7373 38.039 21.763 37.9396 21.7932 37.8228C21.7992 37.7996 21.8054 37.7757 21.8115 37.7509C21.9228 37.4873 22.2199 37.1488 22.4796 37.0361C22.6655 36.9609 23.1108 36.9231 23.5934 36.9231C23.8533 36.9231 24.0668 36.9607 24.2803 36.9983L24.2803 36.9983C24.4938 37.0359 24.7073 37.0736 24.9672 37.0736C25.1713 37.0736 25.3383 37.0642 25.5052 37.0548L25.5054 37.0548C25.6724 37.0455 25.8395 37.0361 26.0436 37.0361H26.8606C27.0088 37.0361 27.0831 37.0361 27.1573 37.1113C27.4174 37.2616 27.7515 37.7509 27.8627 37.9763C27.9 38.0893 27.9 38.2399 27.9 38.2773C27.9 38.4279 27.9 38.5031 27.8627 38.6536V39.7069ZM30.465 54.6782C29.9122 54.3811 29.9122 54.2459 29.9122 53.9193C29.9122 53.7167 29.922 53.5423 29.9314 53.3737L29.9316 53.3712C29.9407 53.2094 29.9501 53.0419 29.9501 52.8565C29.9501 52.6007 29.94 52.389 29.9303 52.1844L29.9303 52.1843L29.9302 52.1828C29.921 51.9903 29.9124 51.8084 29.9122 51.5982C29.9261 51.3905 29.9453 51.209 29.9639 51.0335L29.9642 51.0305C29.996 50.7298 30.0261 50.4459 30.0261 50.0777C30.0261 49.8358 30.0261 49.8264 30.01 49.6734C30.0045 49.6218 29.9971 49.5508 29.9868 49.441L29.9837 49.4183C29.9501 49.2368 29.9501 49.2078 29.9501 49.1377C29.9501 49.0273 29.981 48.9323 30.0004 48.8941L30.0343 48.876L30.07 48.8121C30.2223 48.5394 30.5259 48.4918 31.0069 48.4486H31.5285C31.9272 48.4486 32.3883 48.5154 32.8626 48.6419C32.9702 48.6807 33.0646 48.7196 33.153 48.7559L33.1532 48.7559L33.1562 48.7572C33.4468 48.8766 33.698 48.9799 34.1139 48.9799H35.0647C35.0837 48.9799 35.109 48.9807 35.1398 48.9818L35.1463 48.982L35.1469 48.9821C35.5271 48.9951 36.535 49.0297 37.2217 48.3549C37.6446 47.9394 37.8591 47.3365 37.8591 46.5628C37.8591 46.3107 37.8591 46.025 37.6524 45.4915C37.3623 44.7291 37.1074 44.4972 36.6447 44.0762L36.6445 44.076L36.642 44.0738L36.642 44.0737L36.6413 44.0731C36.5204 43.9631 36.3829 43.838 36.2234 43.6837L36.1519 43.6145H36.143C36.1044 43.5758 36.0505 43.5194 36.004 43.4707L36.003 43.4697C35.8277 43.2865 35.61 43.059 35.4352 42.9249C35.2663 42.804 35.1189 42.7224 34.9764 42.6435L34.9759 42.6432L34.9757 42.6431L34.9756 42.643C34.8202 42.557 34.6857 42.4826 34.5411 42.367C34.4279 42.2602 34.3296 42.1578 34.2345 42.0587C34.0784 41.896 33.931 41.7425 33.7475 41.5952C33.6844 41.5371 33.6276 41.4859 33.5748 41.4382L33.5744 41.4379L33.5735 41.437L33.5545 41.4199C33.3983 41.2792 33.275 41.168 33.1147 40.9958L33.0947 40.9766C33.0098 40.9037 32.9405 40.8291 32.867 40.7501C32.7904 40.668 32.7114 40.5831 32.6112 40.4957C32.4581 40.3316 32.3171 40.1934 32.1809 40.0598L32.1804 40.0594L32.1803 40.0593L32.1762 40.0553C31.9733 39.8565 31.7817 39.6688 31.5629 39.41C31.1605 38.9385 30.9157 38.4398 30.8894 38.3549L30.844 38.2616L30.844 38.2616C30.6551 37.9182 30.5505 37.728 30.4688 37.5285C30.3673 37.2808 30.3011 37.0187 30.1526 36.4314L30.0978 36.2173C30.0861 36.1544 30.0613 36.059 30.0295 35.9385C29.9573 35.6651 29.8483 35.2521 29.7965 34.8077C29.76 34.4527 29.76 34.214 29.76 33.8528C29.76 32.1661 29.8322 31.8253 30.2019 30.831L30.2159 30.7904C30.6019 29.6723 31.2218 28.7759 32.0562 28.128C32.5676 27.7401 33.3187 27.4264 33.6016 27.3083L33.6016 27.3083C33.673 27.2785 33.7198 27.2579 33.7214 27.2565C33.8561 27.1946 34.5676 26.8767 35.3357 26.703C35.764 26.6263 37.6805 26.4615 38.1447 26.4615H38.3348C38.9656 26.4615 39.5294 26.505 39.6404 26.5349L39.6748 26.5417C41.7084 26.7845 42.4252 27.0694 42.6685 27.2655C42.8346 27.3994 42.8789 27.6931 42.8789 27.8455C42.8789 27.9688 42.862 28.0784 42.8441 28.1944L42.8441 28.1946L42.8439 28.1955C42.8239 28.3253 42.8032 28.4594 42.8032 28.6217C42.8032 28.7725 42.8131 28.9215 42.8226 29.0657V29.0658L42.8226 29.066L42.8228 29.0679L42.8228 29.0682C42.8322 29.2108 42.8411 29.3455 42.8411 29.4799V30.2157C42.8411 30.4722 42.8512 30.6843 42.8609 30.8894C42.8702 31.0844 42.8789 31.2686 42.8789 31.4825C42.8789 31.6702 42.8437 31.9165 42.7651 32.0436L42.7541 32.0633C42.5448 32.4806 41.8774 32.6211 41.6051 32.6211C41.4494 32.6211 41.3084 32.5779 41.145 32.5279C41.0048 32.4849 40.8599 32.4406 40.6919 32.4196C40.4303 32.3719 38.4706 32.1716 38.2587 32.1716C38.2388 32.1716 38.2206 32.1695 38.202 32.1678L38.2015 32.1677C38.11 32.1591 37.9849 32.1473 37.7676 32.2233C37.5286 32.29 36.6432 32.6207 36.3108 33.1321C36.0119 33.5452 35.9967 34.1796 35.9967 34.3026C35.9967 35.2245 36.616 36.0951 36.9081 36.3627C37.0485 36.5119 37.2485 36.6704 37.4255 36.8107L37.4256 36.8107L37.4257 36.8108L37.4263 36.8112L37.4268 36.8117L37.4279 36.8125C37.5084 36.8763 37.5835 36.9358 37.6432 36.987L37.6664 37.0047C37.808 37.0999 37.9233 37.1952 38.0453 37.2961C38.1694 37.3987 38.2975 37.5046 38.456 37.6116C38.545 37.6833 38.8224 37.9357 39.0594 38.1514L39.0595 38.1515C39.2171 38.2949 39.3568 38.4221 39.4112 38.4689C39.4626 38.5102 39.5029 38.5456 39.5389 38.5771C39.5962 38.6274 39.6424 38.6679 39.7044 38.7073C39.7207 38.7177 39.7568 38.7506 39.7938 38.7843L39.7939 38.7844C39.8356 38.8225 39.8785 38.8617 39.8955 38.8706C40.0444 38.9794 40.052 38.989 40.1951 39.169L40.251 39.2393L40.301 39.3109L40.3229 39.3381C40.5766 39.6108 40.8241 39.8254 41.0051 39.9822L41.0052 39.9824L41.0063 39.9833C41.092 40.0575 41.166 40.1217 41.1972 40.1554L41.211 40.1691C41.3751 40.3204 41.4766 40.4369 41.5939 40.5717L41.5944 40.5724C41.6584 40.646 41.7251 40.7226 41.8056 40.8093L41.8258 40.8286C42.003 40.9809 42.1093 41.0948 42.2619 41.2586C42.3495 41.353 42.4664 41.5061 42.4962 41.5451L42.5033 41.5543C42.681 41.8213 42.7879 42.0105 42.9523 42.3189C43.6605 43.5206 44.02 44.5638 44.02 46.9306C44.02 47.9655 43.9347 48.75 43.7622 49.2765C43.7157 49.4514 43.6518 49.5755 43.5778 49.7191L43.5775 49.7197C43.5434 49.7859 43.5084 49.854 43.4734 49.9293C43.3837 50.1219 43.3363 50.2922 43.2905 50.4568L43.2882 50.4651L43.2881 50.4652C43.272 50.5232 43.2555 50.5823 43.2366 50.6441L43.2316 50.6559C43.0893 50.992 43.0893 50.992 42.8242 51.3452L42.8242 51.3452L42.6563 51.57C42.0625 52.4481 41.8408 52.7262 41.0253 53.4432L41.0075 53.4606C40.8654 53.6133 40.705 53.7616 40.5175 53.9136C40.3182 54.0236 38.5313 55.0011 37.633 55.1868C37.1217 55.3062 36.6821 55.3081 36.2168 55.31H36.2156C35.913 55.3112 35.6001 55.3125 35.2436 55.3439C35.1233 55.3446 35.0152 55.355 34.9106 55.3651L34.9082 55.3653L34.9076 55.3654C34.8062 55.3753 34.7104 55.3846 34.6082 55.3846C34.4878 55.3846 34.3924 55.3754 34.2916 55.3656L34.2915 55.3656L34.2896 55.3654C34.1867 55.3554 34.0805 55.345 33.9464 55.344L33.8857 55.333C33.6904 55.2971 33.5058 55.2632 33.2879 55.2622C33.0455 55.2419 32.8305 55.2219 32.6155 55.2018C32.3994 55.1815 32.1832 55.1614 31.9398 55.1411C31.8242 55.1209 31.7278 55.1105 31.6345 55.1005L31.6303 55.1L31.6263 55.0996C31.5424 55.0906 31.4583 55.0816 31.3592 55.0646C30.9841 54.9418 30.5685 54.75 30.4919 54.6951L30.465 54.6782ZM45.0449 55.188C45.0449 55.188 45.2333 55.5178 45.2616 55.545C45.4804 55.7924 45.8744 55.9249 46.3778 55.9249H47.0605C47.1718 55.9004 47.2653 55.908 47.364 55.916C47.416 55.9202 47.4723 55.9249 47.538 55.9249C47.7868 55.9249 48.0017 55.9154 48.2097 55.9063C48.4202 55.897 49.1902 55.8971 49.3252 55.9064C49.4623 55.9159 49.5919 55.9249 49.7425 55.9249H51.0575L51.2214 55.9391L51.2228 55.9393C51.5827 55.9718 51.8937 56 52.2951 56C52.4605 56 52.6073 55.9914 52.7624 55.9823L52.7636 55.9822C52.9283 55.9726 53.0985 55.9626 53.3006 55.9626L53.779 55.9423C54.4662 55.9129 55.0597 55.8875 55.8532 55.8875C56.1812 55.8875 56.4669 55.9063 56.7432 55.9245C57.0277 55.9432 57.3218 55.9626 57.6708 55.9626C57.8214 55.9626 57.951 55.9536 58.0881 55.944C58.2232 55.9346 58.3629 55.9249 58.5216 55.9249L58.7284 55.9007C58.9625 55.8735 59.1648 55.85 59.4112 55.85C59.6916 55.85 59.9211 55.8697 60.1431 55.8888L60.1432 55.8888L60.1443 55.8889L60.1463 55.8891L60.1464 55.8891C60.3604 55.9075 60.5627 55.9249 60.8035 55.9249C61.8579 55.9249 62 55.3579 62 54.8033C62 54.5053 62 54.0973 61.9624 53.8042C61.9379 53.6025 61.9134 53.4682 61.8916 53.3497L61.8916 53.3494C61.8442 53.0909 61.8067 52.8865 61.8067 52.2126C61.8067 51.8472 61.68 51.1526 61.408 50.8222L61.3944 50.8015C61.3685 50.7514 61.2698 50.6518 61.1642 50.5835C61.056 50.5135 60.4954 50.3021 60.0687 50.3021C59.8827 50.3021 59.7359 50.32 59.5806 50.3388C59.4249 50.3577 59.2639 50.3772 59.0632 50.3772C58.7217 50.4149 58.4458 50.4149 58.0964 50.4149H58.0962C57.926 50.4149 57.787 50.4239 57.6398 50.4335C57.4954 50.4427 57.346 50.4523 57.1681 50.4523C56.9958 50.4523 56.8185 50.4436 56.6308 50.4343C56.1772 50.4118 55.6968 50.4178 55.2385 50.4336C54.9713 50.4428 54.695 50.4523 54.4223 50.4523C53.6897 50.4523 53.0067 50.3846 52.4991 50.2614L52.499 50.2614C52.0813 50.1599 51.304 49.9709 51.1336 48.8126L51.1323 48.7957C51.1322 48.7866 51.1306 48.7379 51.1282 48.6616L51.1279 48.6528C51.1175 48.3283 51.0938 47.5891 51.0938 47.1434C51.0938 46.5154 51.1647 45.8295 51.6908 45.5046C51.9447 45.3402 52.5111 45.224 52.7205 45.224H53.1847L53.4324 45.2004C53.7196 45.1727 53.9677 45.1489 54.3061 45.1489C54.4899 45.1489 54.6717 45.1783 54.8476 45.2067C55.0216 45.2348 55.1861 45.2614 55.3504 45.2614C55.6126 45.2614 55.8838 45.2614 56.1462 45.2251C56.322 45.2241 56.4612 45.2337 56.5962 45.243L56.5979 45.2431C56.7344 45.2525 56.8634 45.2614 57.0134 45.2614H59.0247C59.9569 45.2614 60.4565 45.0352 60.6953 44.505C60.7151 44.4462 60.7222 44.3923 60.7377 44.2743L60.7377 44.2743V44.2742C60.7443 44.2235 60.7524 44.1624 60.7637 44.0853L60.8119 43.7851C60.8467 43.5707 60.8578 43.5024 60.8588 43.434C60.8593 43.4021 60.8576 43.3701 60.8551 43.3233L60.8551 43.3232C60.8494 43.2155 60.8398 43.0353 60.8398 42.6379C60.8398 42.3652 60.8398 42.36 60.8695 42.1809C60.8806 42.1147 60.8959 42.0225 60.9173 41.8778C60.9186 41.8104 60.9331 41.6102 60.9561 41.2964L60.9562 41.2956C60.9742 41.0514 60.9945 40.7749 60.9945 40.7229C60.9945 40.4528 60.9306 40.2919 60.7095 40.0057C60.4383 39.6256 60.1949 39.6287 59.607 39.6364C59.5221 39.6375 59.4313 39.6387 59.3338 39.6387C59.0872 39.6387 58.8355 39.6599 58.5921 39.6805C58.2713 39.7076 57.9396 39.7355 57.624 39.7136H57.6206C57.3123 39.7136 57.0437 39.6749 56.7838 39.6375H56.7838L56.7837 39.6375L56.7829 39.6374L56.7828 39.6374C56.5189 39.5994 56.2696 39.5636 55.969 39.5636C55.5876 39.5636 55.2659 39.592 54.9548 39.6196L54.9547 39.6196C54.6385 39.6475 54.3115 39.6764 53.9196 39.6764C53.2463 39.6764 52.5164 39.5534 52.2043 39.5008L52.2037 39.5007L52.1212 39.4869C51.9358 39.4511 51.84 39.3852 51.7475 39.3214C51.7377 39.3146 51.7279 39.3078 51.7178 39.301C51.7083 39.2946 51.6987 39.2882 51.6888 39.2817C51.0802 38.8755 51.0852 38.1744 51.0922 37.2039L51.0922 37.196C51.093 37.0867 51.0938 36.9733 51.0938 36.8556C51.0938 35.1621 51.8545 34.8607 53.9969 34.8607C54.1523 34.8607 54.6252 34.8607 55.0989 34.9374C55.3464 34.9625 55.4998 34.984 55.6213 35.0011C55.8463 35.0328 55.9592 35.0486 56.4333 35.0486C56.7597 35.0486 57.0337 35.0391 57.2988 35.0299L57.2993 35.0299C57.5665 35.0205 57.8428 35.0109 58.1736 35.0109C58.3886 35.0109 58.5665 35.0206 58.7385 35.0299L58.7388 35.0299L58.7409 35.03L58.7413 35.03L58.7414 35.03C58.9109 35.0392 59.0861 35.0486 59.2953 35.0486C59.4486 35.0486 59.734 35.0486 60.1367 34.8709L60.1622 34.8629C60.2915 34.8379 60.2974 34.8347 60.3543 34.8048C60.3759 34.7933 60.4031 34.779 60.4419 34.7601C60.5319 34.7009 60.5986 34.6363 60.6671 34.5367C60.7047 34.4818 60.7405 34.4327 60.7738 34.3868C60.941 34.1569 61.033 34.0302 61.033 33.6266C61.033 33.3138 61.0039 33.0497 60.9757 32.7943V32.7943C60.9469 32.5328 60.9171 32.2624 60.9171 31.937C60.9171 31.7106 60.9365 31.5088 60.9552 31.3136C60.9746 31.1121 60.9945 30.9037 60.9945 30.6604C60.9945 29.717 60.2449 29.5761 59.798 29.5761C59.5124 29.5761 59.2591 29.595 59.0141 29.6134C58.7648 29.632 58.507 29.6512 58.2125 29.6512C57.7439 29.6512 57.3387 29.6224 56.9468 29.5946L56.9468 29.5946L56.9461 29.5945L56.946 29.5945C56.5586 29.567 56.1579 29.5385 55.6984 29.5385C55.5911 29.5385 55.4739 29.5469 55.3498 29.556C55.1325 29.5716 54.9026 29.5827 54.6608 29.5566L54.6604 29.5566L54.6604 29.5565C54.5781 29.5477 54.4931 29.5385 54.4223 29.5385H54.3061L54.1919 29.5561C53.9809 29.587 53.7986 29.6136 53.5327 29.6136H52.9911C52.7633 29.6136 52.5594 29.623 52.3622 29.6321L52.3589 29.6323C52.1578 29.6416 51.9499 29.6512 51.715 29.6512C51.3631 29.6512 51.0564 29.6321 50.7598 29.6135L50.7594 29.6134L50.7593 29.6134C50.4667 29.5951 50.164 29.5761 49.8199 29.5761C49.4173 29.5761 49.0652 29.5951 48.7248 29.6135L48.7247 29.6135L48.7241 29.6136L48.7237 29.6136H48.7237C48.38 29.6321 48.0246 29.6512 47.6154 29.6512C47.318 29.6512 47.0699 29.6414 46.8299 29.6319C46.5939 29.6224 46.3709 29.6136 46.1072 29.6136C45.6465 29.6136 45.3761 29.8157 45.2304 29.9853C44.816 30.3885 44.6786 30.8979 44.6786 32.0118C44.6786 32.3627 44.7078 32.6557 44.7361 32.939C44.765 33.228 44.7948 33.5269 44.7948 33.8893C44.7948 34.153 44.7948 34.3812 44.756 34.6487V35.5416C44.756 35.9238 44.7359 36.2502 44.7166 36.5659L44.7163 36.5697C44.6969 36.8849 44.6786 37.1827 44.6786 37.5313C44.6786 37.8043 44.7006 38.0459 44.7219 38.2797L44.7219 38.2798L44.722 38.2805L44.722 38.2809V38.2809C44.7496 38.584 44.7782 38.8973 44.7558 39.2657C44.756 39.5513 44.728 39.787 44.6956 40.0598L44.6778 40.2107C44.64 40.5419 44.64 40.804 44.64 41.1358V42.6755C44.64 43.0286 44.6497 43.3411 44.6591 43.6433L44.6591 43.6438L44.6592 43.6481C44.6688 43.9536 44.6786 44.2694 44.6786 44.6279V45.0035C44.6786 45.2369 44.6965 45.4419 44.7155 45.6587L44.7157 45.6615L44.7158 45.6621L44.7158 45.6623C44.7356 45.8873 44.756 46.1201 44.756 46.3927C44.756 46.569 44.7358 46.7254 44.7163 46.8766L44.7162 46.8779V46.878C44.6968 47.0282 44.6786 47.1702 44.6786 47.3314V50.2599C44.6786 50.3859 44.6877 50.4924 44.6974 50.6051L44.6974 50.6052L44.6976 50.6069C44.7074 50.72 44.7174 50.8371 44.7174 50.9734C44.7429 51.1901 44.7349 51.3695 44.7264 51.5594C44.722 51.6573 44.7193 51.7845 44.7193 51.8997C44.7193 51.8997 44.7457 52.2282 44.7622 52.3736C44.7889 52.6098 44.7863 52.8582 44.7835 53.1129V53.113V53.1133C44.7827 53.1915 44.7818 53.2703 44.7818 53.3495C44.7496 53.6065 44.7522 53.8579 44.7547 54.095C44.7553 54.1569 44.756 54.2178 44.756 54.2775C44.756 54.7297 44.8926 54.9662 45.0449 55.188ZM27.8984 31.4666C27.8989 31.4526 27.8995 31.4385 27.9 31.4244L27.8969 31.3905C27.8825 31.2329 27.8681 31.0762 27.8449 30.9196C27.7483 30.2693 27.2456 29.7154 26.7632 29.3L26.7581 29.2957C26.6122 29.17 26.5063 29.0788 26.33 29.0021C26.2277 28.9576 26.133 28.9036 26.0377 28.8492C25.9845 28.8189 25.9311 28.7884 25.8761 28.7594C25.7604 28.6985 25.6407 28.6439 25.5213 28.5895C25.4876 28.5741 25.4539 28.5587 25.4204 28.5433C25.2308 28.4557 24.6114 28.3438 24.4605 28.3268C24.2732 28.3058 24.0784 28.2992 23.8908 28.322C23.7275 28.3419 23.0646 28.5329 22.8725 28.641C22.8539 28.6515 22.835 28.6621 22.8159 28.6728C22.5364 28.8297 22.2227 29.0059 21.9989 29.2303C21.9333 29.296 21.877 29.3733 21.8206 29.4506C21.7766 29.511 21.7326 29.5714 21.6841 29.6264C21.5838 29.7401 21.5371 29.8457 21.483 29.968C21.465 30.0085 21.4462 30.0509 21.4244 30.0961C21.3997 30.1472 21.3743 30.1937 21.3497 30.2387C21.2927 30.3428 21.24 30.4391 21.2102 30.5675C21.2007 30.6084 21.1908 30.6495 21.1808 30.6907C21.1492 30.821 21.1174 30.9524 21.0988 31.0838C21.0497 31.4311 21.1044 31.7929 21.1755 32.1346C21.1793 32.1527 21.183 32.1709 21.1868 32.1892C21.2516 32.5024 21.3243 32.8538 21.4886 33.1262C21.5393 33.2102 21.5993 33.2896 21.6594 33.3692C21.7134 33.4406 21.7674 33.5121 21.8148 33.5871C21.8511 33.6445 21.8818 33.708 21.9125 33.7716C21.9538 33.857 21.9951 33.9425 22.0499 34.0134C22.1332 34.1211 22.2603 34.2149 22.3754 34.2998C22.3955 34.3146 22.4152 34.3291 22.4343 34.3434C22.5015 34.3939 22.5631 34.4549 22.6245 34.5158C22.6943 34.5849 22.7638 34.6537 22.8409 34.7065C22.9205 34.761 23.0217 34.7966 23.1207 34.8314C23.174 34.8502 23.2265 34.8687 23.2748 34.8898C23.4626 34.9719 23.6275 35.0159 23.8315 35.0478C24.1641 35.0998 24.5236 35.0789 24.8551 35.0111C24.9419 34.9933 25.0247 34.9562 25.1074 34.919C25.1593 34.8957 25.2112 34.8724 25.264 34.854C25.4774 34.7792 26.032 34.457 26.1634 34.3723C26.3062 34.2803 26.43 34.1618 26.5368 34.0317C26.6389 33.9073 26.7499 33.792 26.861 33.6766C26.977 33.5561 27.0931 33.4355 27.1994 33.3042C27.3183 33.1571 27.4366 33.01 27.5297 32.8445C27.5743 32.7652 27.5989 32.6785 27.6236 32.5915C27.6393 32.5361 27.6551 32.4805 27.6761 32.4266C27.693 32.3831 27.7102 32.3415 27.7271 32.3008C27.777 32.1799 27.8239 32.0662 27.8532 31.9308C27.8868 31.7751 27.8925 31.6246 27.8984 31.4666Z" fill="#2B3648"/>
</svg>
